<svg width="202.000000" height="56.000000" viewBox="0 0 202 56" fill="none" xmlns="http://www.w3.org/2000/svg" xmlns:xlink="http://www.w3.org/1999/xlink">
	<desc>
			Created with Pixso.
	</desc>
	<defs>
		<filter id="filter_7_950_dd" x="0.000000" y="0.000000" width="202.000000" height="56.000000" filterUnits="userSpaceOnUse" color-interpolation-filters="sRGB">
			<feFlood flood-opacity="0" result="BackgroundImageFix"/>
			<feColorMatrix in="SourceAlpha" type="matrix" values="0 0 0 0 0 0 0 0 0 0 0 0 0 0 0 0 0 0 127 0" result="hardAlpha"/>
			<feOffset dx="0" dy="4"/>
			<feGaussianBlur stdDeviation="1.33333"/>
			<feComposite in2="hardAlpha" operator="out" k2="-1" k3="1"/>
			<feColorMatrix type="matrix" values="0 0 0 0 0 0 0 0 0 0 0 0 0 0 0 0 0 0 0.25 0"/>
			<feBlend mode="normal" in2="BackgroundImageFix" result="effect_dropShadow_1"/>
			<feBlend mode="normal" in="SourceGraphic" in2="effect_dropShadow_1" result="shape"/>
		</filter>
		<clipPath id="clip7_939">
			<rect id="favicon" rx="-0.500000" width="47.000000" height="47.000000" transform="translate(4.500000 0.500000)" fill="white" fill-opacity="0"/>
		</clipPath>
		<linearGradient x1="43.963982" y1="42.176521" x2="46.781364" y2="19.689787" id="paint_linear_6_928_0" gradientUnits="userSpaceOnUse">
			<stop stop-color="#DF286A"/>
			<stop offset="0.000100" stop-color="#DF286A"/>
			<stop offset="0.479167" stop-color="#E3484D"/>
			<stop offset="0.479267" stop-color="#E3484D"/>
			<stop offset="1.000000" stop-color="#E86A2D"/>
		</linearGradient>
		<linearGradient x1="32.735153" y1="43.632324" x2="35.693401" y2="26.767277" id="paint_linear_6_930_0" gradientUnits="userSpaceOnUse">
			<stop stop-color="#DF286A"/>
			<stop offset="0.000100" stop-color="#DF286A"/>
			<stop offset="0.479167" stop-color="#E3484D"/>
			<stop offset="0.479267" stop-color="#E3484D"/>
			<stop offset="1.000000" stop-color="#E86A2D"/>
		</linearGradient>
		<linearGradient x1="21.784475" y1="45.088135" x2="24.742714" y2="33.844769" id="paint_linear_6_931_0" gradientUnits="userSpaceOnUse">
			<stop stop-color="#DF286A"/>
			<stop offset="0.000100" stop-color="#DF286A"/>
			<stop offset="0.479167" stop-color="#E3484D"/>
			<stop offset="0.479267" stop-color="#E3484D"/>
			<stop offset="1.000000" stop-color="#E86A2D"/>
		</linearGradient>
		<linearGradient x1="10.834033" y1="46.107346" x2="13.792276" y2="38.799160" id="paint_linear_6_932_0" gradientUnits="userSpaceOnUse">
			<stop stop-color="#DF286A"/>
			<stop offset="0.000100" stop-color="#DF286A"/>
			<stop offset="0.479167" stop-color="#E3484D"/>
			<stop offset="0.479267" stop-color="#E3484D"/>
			<stop offset="1.000000" stop-color="#E86A2D"/>
		</linearGradient>
	</defs>
	<g filter="url(#filter_7_950_dd)">
		<path id="MARKIFY" d="M184.87 47.6L184.87 39.31L186.16 42.64L177.4 28L183.25 28L189.58 38.61L186.19 38.61L192.54 28L197.92 28L189.18 42.64L190.42 39.31L190.42 47.6L184.87 47.6Z" fill="#803A6A" fill-opacity="1.000000" fill-rule="nonzero"/>
		<path id="MARKIFY" d="M167.1 36.59L176.15 36.59L176.15 40.87L167.1 40.87L167.1 36.59ZM167.5 47.6L161.95 47.6L161.95 28L177.32 28L177.32 32.28L167.5 32.28L167.5 47.6Z" fill="#803A6A" fill-opacity="1.000000" fill-rule="nonzero"/>
		<path id="MARKIFY" d="M152.46 47.6L152.46 28L158.01 28L158.01 47.6L152.46 47.6Z" fill="#803A6A" fill-opacity="1.000000" fill-rule="nonzero"/>
		<path id="MARKIFY" d="M136.36 43.26L136.06 37.04L144.48 28L150.59 28L142.19 37.1L139.11 40.32L136.36 43.26ZM131.41 47.6L131.41 28L136.9 28L136.9 47.6L131.41 47.6ZM144.57 47.6L138.18 39.5L141.8 35.64L151.01 47.6L144.57 47.6Z" fill="#DF286A" fill-opacity="1.000000" fill-rule="nonzero"/>
		<path id="MARKIFY" d="M110.68 47.6L110.68 28L119.64 28C121.43 28 122.97 28.28 124.26 28.86C125.57 29.44 126.58 30.28 127.29 31.38C128 32.47 128.35 33.75 128.35 35.25C128.35 36.72 128 38 127.29 39.08C126.58 40.15 125.57 40.97 124.26 41.55C122.97 42.11 121.43 42.39 119.64 42.39L113.76 42.39L116.23 40.06L116.23 47.6L110.68 47.6ZM122.81 47.6L117.93 40.46L123.84 40.46L128.74 47.6L122.81 47.6ZM116.23 40.65L113.76 38.1L119.31 38.1C120.46 38.1 121.32 37.85 121.88 37.35C122.46 36.84 122.75 36.14 122.75 35.25C122.75 34.33 122.46 33.62 121.88 33.12C121.32 32.62 120.46 32.36 119.31 32.36L113.76 32.36L116.23 29.82L116.23 40.65Z" fill="#803A6A" fill-opacity="1.000000" fill-rule="nonzero"/>
		<path id="MARKIFY" d="M86.32 47.6L94.97 28L100.43 28L109.11 47.6L103.34 47.6L96.57 30.71L98.75 30.71L91.97 47.6L86.32 47.6ZM91.05 43.79L92.48 39.7L102.05 39.7L103.48 43.79L91.05 43.79Z" fill="#803A6A" fill-opacity="1.000000" fill-rule="nonzero"/>
		<path id="MARKIFY" d="M61.96 47.6L61.96 28L66.52 28L74.64 41.32L72.23 41.32L80.13 28L84.69 28L84.75 47.6L79.65 47.6L79.59 35.75L80.46 35.75L74.56 45.66L72.09 45.66L66.01 35.75L67.08 35.75L67.08 47.6L61.96 47.6Z" fill="#EB8B27" fill-opacity="1.000000" fill-rule="nonzero"/>
		<g clip-path="url(#clip7_939)">
			<rect id="Rectangle 12" x="42.231934" y="18.798584" width="7.300380" height="29.201521" fill="url(#paint_linear_6_928_0)" fill-opacity="1.000000"/>
			<rect id="Rectangle 13" x="30.916504" y="26.098877" width="7.665399" height="21.901140" fill="url(#paint_linear_6_930_0)" fill-opacity="1.000000"/>
			<rect id="Rectangle 14" x="19.965820" y="33.399170" width="7.665399" height="14.600760" fill="url(#paint_linear_6_931_0)" fill-opacity="1.000000"/>
			<rect id="Rectangle 15" x="9.015381" y="38.509521" width="7.665399" height="9.490494" fill="url(#paint_linear_6_932_0)" fill-opacity="1.000000"/>
			<path id="Vector 13" d="M38.39 12.77L43.32 16.79L48.25 9.85L50.62 11.86L51.9 0L40.95 4.19L43.32 6.02L38.39 12.77Z" fill="#803A6A" fill-opacity="1.000000" fill-rule="evenodd"/>
			<path id="Vector 14" d="M5 31.02C23.98 29.74 33.83 21.35 40.58 13.68L42.41 15.14C38.52 21.11 25.58 32.63 5 31.02Z" fill="#803A6A" fill-opacity="1.000000" fill-rule="evenodd"/>
		</g>
	</g>
</svg>
