<svg width="1440.000000" height="944.000000" viewBox="0 0 1440 944" fill="none" xmlns="http://www.w3.org/2000/svg" xmlns:xlink="http://www.w3.org/1999/xlink"><desc>Created with Pixso.</desc><defs><filter id="filter_1_6575_dd" x="-416.000000" y="-290.000000" width="1552.000000" height="1523.000000" filterUnits="userSpaceOnUse" color-interpolation-filters="sRGB"><feFlood flood-opacity="0" result="BackgroundImageFix"/><feBlend mode="normal" in="SourceGraphic" in2="BackgroundImageFix" result="shape"/><feGaussianBlur stdDeviation="138.667" result="effect_layerBlur_1"/></filter><filter id="filter_1_6578_dd" x="495.000000" y="-119.000000" width="1402.000000" height="1408.000000" filterUnits="userSpaceOnUse" color-interpolation-filters="sRGB"><feFlood flood-opacity="0" result="BackgroundImageFix"/><feBlend mode="normal" in="SourceGraphic" in2="BackgroundImageFix" result="shape"/><feGaussianBlur stdDeviation="163.667" result="effect_layerBlur_1"/></filter><filter id="filter_1_6580_dd" x="-457.000000" y="-370.000000" width="1328.000000" height="1332.942871" filterUnits="userSpaceOnUse" color-interpolation-filters="sRGB"><feFlood flood-opacity="0" result="BackgroundImageFix"/><feBlend mode="normal" in="SourceGraphic" in2="BackgroundImageFix" result="shape"/><feGaussianBlur stdDeviation="163.667" result="effect_layerBlur_1"/></filter><filter id="filter_1_6582_dd" x="26.000000" y="-240.000000" width="1700.000000" height="1439.000000" filterUnits="userSpaceOnUse" color-interpolation-filters="sRGB"><feFlood flood-opacity="0" result="BackgroundImageFix"/><feBlend mode="normal" in="SourceGraphic" in2="BackgroundImageFix" result="shape"/><feGaussianBlur stdDeviation="151" result="effect_layerBlur_1"/></filter><clipPath id="clip1_6563"><rect id="bg_desktop 1 6" rx="-0.500000" width="1439.000000" height="943.000000" transform="translate(0.500000 0.500000)" fill="white" fill-opacity="0"/></clipPath></defs><g opacity="0.400000"><rect id="bg_desktop 1 6" rx="-0.500000" width="1439.000000" height="943.000000" transform="translate(0.500000 0.500000)" fill="#FFFFFF" fill-opacity="0"/><g clip-path="url(#clip1_6563)"><mask id="mask1_6565" mask-type="alpha" maskUnits="userSpaceOnUse" x="0.000000" y="0.000000" width="1440.000000" height="944.000000"><path id="Vector" d="M0 0L1440 0L1440 944L0 944L0 0Z" fill="#000000" fill-opacity="1.000000" fill-rule="evenodd"/></mask><g mask="url(#mask1_6565)"><path id="Vector" d="M0 0L1440 0L1440 944L0 944L0 0Z" fill="#FFFFFF" fill-opacity="1.000000" fill-rule="evenodd"/><mask id="mask1_6570" mask-type="alpha" maskUnits="userSpaceOnUse" x="0.000000" y="0.000000" width="1440.000000" height="944.000000"><path id="Vector" d="M1440 0L0 0L0 944L1440 944L1440 0Z" fill="#FFFFFF" fill-opacity="1.000000" fill-rule="nonzero"/></mask><g mask="url(#mask1_6570)"><g opacity="0.200000"><path id="Vector" d="M1440 0L0 0L0 944L1440 944L1440 0Z" fill="#FFFFFF" fill-opacity="1.000000" fill-rule="nonzero"/><g filter="url(#filter_1_6575_dd)"><path id="Vector" d="M195 817C302.69 817 390 729.69 390 622C390 514.3 302.69 427 195 427C87.3 427 0 514.3 0 622C0 729.69 87.3 817 195 817Z" fill="#7F3A6A" fill-opacity="1.000000" fill-rule="nonzero"/><path id="Vector" d="M525 516C632.69 516 720 428.69 720 321C720 213.3 632.69 126 525 126C417.3 126 330 213.3 330 321C330 428.69 417.3 516 525 516Z" fill="#7F3A6A" fill-opacity="1.000000" fill-rule="nonzero"/></g><g filter="url(#filter_1_6578_dd)"><path id="Vector" d="M1196 798C1311.98 798 1406 702.63 1406 585C1406 467.36 1311.98 372 1196 372C1080.02 372 986 467.36 986 585C986 702.63 1080.02 798 1196 798Z" fill="#DF286A" fill-opacity="1.000000" fill-rule="nonzero"/></g><g filter="url(#filter_1_6580_dd)"><path id="Vector" d="M207 471.94C302.54 471.94 380 393.38 380 296.47C380 199.56 302.54 121 207 121C111.45 121 34 199.56 34 296.47C34 393.38 111.45 471.94 207 471.94Z" fill="#DF286A" fill-opacity="1.000000" fill-rule="nonzero"/></g><g filter="url(#filter_1_6582_dd)"><path id="Vector" d="M1060 639C1177.64 639 1273 543.63 1273 426C1273 308.36 1177.64 213 1060 213C942.36 213 847 308.36 847 426C847 543.63 942.36 639 1060 639Z" fill="#EB8B27" fill-opacity="1.000000" fill-rule="nonzero"/><path id="Vector" d="M692 746C809.64 746 905 650.63 905 533C905 415.36 809.64 320 692 320C574.36 320 479 415.36 479 533C479 650.63 574.36 746 692 746Z" fill="#E9A923" fill-opacity="1.000000" fill-rule="nonzero"/></g></g></g></g></g></g></svg>