<svg width="1454.101440" height="61.000000" viewBox="0 0 1454.1 61" fill="none" xmlns="http://www.w3.org/2000/svg" xmlns:xlink="http://www.w3.org/1999/xlink">
	<desc>
			Created with Pixso.
	</desc>
	<defs>
		<clipPath id="clip1_2694">
			<rect id="Property 1=Variant2" rx="-0.500000" width="1453.100342" height="59.999950" transform="translate(0.500000 0.500000)" fill="white" fill-opacity="0"/>
		</clipPath>
	</defs>
	<rect id="Property 1=Variant2" rx="-0.500000" width="1453.100342" height="59.999950" transform="translate(0.500000 0.500000)" fill="#7F3A6A" fill-opacity="1.000000"/>
	<g clip-path="url(#clip1_2694)">
		<path id="We buy trAffic" d="M-623.67 21.3C-619.63 21.3 -616.58 23.62 -616.1 27.65L-619.83 27.65C-620.11 25.74 -621.57 24.56 -623.59 24.56C-626.29 24.56 -628.06 26.64 -628.06 30.27C-628.06 34 -626.26 35.97 -623.61 35.97C-621.65 35.97 -620.17 34.89 -619.83 33.03L-616.1 33.05C-616.5 36.26 -619.2 39.24 -623.67 39.24C-628.34 39.24 -631.8 35.96 -631.8 30.27C-631.8 24.56 -628.29 21.3 -623.67 21.3ZM-809.96 39L-813.56 39L-818.55 21.54L-814.52 21.54L-811.63 33.67L-811.49 33.67L-808.3 21.54L-804.85 21.54L-801.67 33.69L-801.51 33.69L-798.63 21.54L-794.59 21.54L-799.59 39L-803.18 39L-806.51 27.58L-806.65 27.58L-809.96 39ZM-780.83 39L-792.63 39L-792.63 21.54L-780.87 21.54L-780.87 24.58L-788.93 24.58L-788.93 28.74L-781.47 28.74L-781.47 31.78L-788.93 31.78L-788.93 35.95L-780.83 35.95L-780.83 39ZM-764.9 39L-772.36 39L-772.36 21.54L-765.37 21.54C-761.52 21.54 -759.57 23.4 -759.57 26.02C-759.57 28.07 -760.92 29.36 -762.73 29.77L-762.73 29.94C-760.75 30.03 -758.89 31.59 -758.89 34.17C-758.89 36.95 -760.98 39 -764.9 39ZM-745.72 32.56L-745.72 21.54L-742.03 21.54L-742.03 32.88C-742.03 36.69 -744.93 39.24 -749.26 39.24C-753.62 39.24 -756.5 36.69 -756.5 32.88L-756.5 21.54L-752.81 21.54L-752.81 32.56C-752.81 34.55 -751.4 36 -749.26 36C-747.12 36 -745.72 34.55 -745.72 32.56ZM-733.65 32.83L-740.02 21.54L-735.88 21.54L-731.9 29.06L-731.73 29.06L-727.75 21.54L-723.62 21.54L-729.99 32.83L-729.99 39L-733.65 39L-733.65 32.83ZM-711.36 24.58L-716.71 24.58L-716.71 21.54L-702.37 21.54L-702.37 24.58L-707.71 24.58L-707.71 39L-711.36 39L-711.36 24.58ZM-696.31 39L-700 39L-700 21.54L-693.12 21.54C-689.15 21.54 -686.86 23.77 -686.86 27.24C-686.86 29.63 -687.96 31.36 -689.95 32.21L-686.24 39L-690.31 39L-693.62 32.81L-696.31 32.81L-696.31 39ZM-679.95 35.02L-681.24 39L-685.2 39L-679.17 21.54L-674.42 21.54L-668.4 39L-672.36 39L-673.65 35.02L-679.95 35.02ZM-662.61 39L-666.3 39L-666.3 21.54L-654.75 21.54L-654.75 24.58L-662.61 24.58L-662.61 28.74L-655.51 28.74L-655.51 31.78L-662.61 31.78L-662.61 39ZM-648.57 39L-652.26 39L-652.27 21.54L-640.71 21.54L-640.71 24.58L-648.57 24.58L-648.57 28.74L-641.48 28.74L-641.48 31.78L-648.57 31.78L-648.57 39ZM-638.23 21.54L-634.54 21.54L-634.54 39L-638.23 39L-638.23 21.54ZM-768.67 24.52L-768.67 28.85L-765.93 28.85C-764.43 28.85 -763.3 28.01 -763.3 26.63C-763.3 25.37 -764.23 24.52 -765.87 24.52L-768.67 24.52ZM-696.31 24.56L-696.31 29.84L-693.81 29.84C-691.69 29.84 -690.66 28.97 -690.66 27.24C-690.66 25.5 -691.69 24.56 -693.83 24.56L-696.31 24.56ZM-676.86 25.53L-679.01 32.13L-674.58 32.13L-676.73 25.53L-676.86 25.53ZM-768.67 31.34L-768.67 35.98L-765.66 35.98C-763.6 35.98 -762.7 35.12 -762.7 33.8C-762.7 32.36 -763.8 31.34 -765.57 31.34L-768.67 31.34Z" fill="#FFFFFF" fill-opacity="1.000000" fill-rule="evenodd"/>
		<path id="We buy trAffic" d="M-439.95 21.63L-438.37 21.63L-433.27 37.89L-432.84 39.28L-432.8 39.39L-436.5 39.39L-437.63 35.67L-443.67 35.67L-444.78 39.39L-448.43 39.39L-448.17 38.56L-447.96 37.89L-442.86 21.63L-439.95 21.63ZM-440.93 20.13L-443.96 20.13L-449.1 36.54L-450.79 32.9Q-450.12 32.42 -449.61 31.69Q-449.04 30.92 -448.73 29.8Q-448.44 28.74 -448.44 27.31Q-448.44 25.32 -448.93 23.99Q-449.44 22.52 -450.42 21.64Q-450.88 21.23 -451.4 20.94Q-451.98 20.62 -452.63 20.45Q-453.74 20.13 -455 20.13L-479.08 20.13L-479.08 26.32L-474.21 26.32L-474.21 40.89L-467.66 40.89L-467.66 26.32L-463.85 26.32L-463.84 40.89L-457.29 40.89L-457.29 34.29Q-457.09 34.29 -456.9 34.3L-454.04 40.89L-443.66 40.89L-442.55 37.17L-438.74 37.17L-437.61 40.89L-426.28 40.89L-426.29 34.03L-419.25 33.84L-419.25 28.11L-426.29 27.92L-426.29 26.42L-419.08 26.42L-419.08 40.89L-412.53 40.89L-412.53 34.03L-405.5 33.84L-405.5 28.11L-412.53 27.92L-412.53 26.42L-405.09 26.42L-405.09 40.89L-398.53 40.89L-398.54 35.11Q-398.5 35.3 -398.46 35.47Q-397.94 37.59 -396.88 38.84Q-396.22 39.6 -395.4 40.07Q-394.83 40.41 -394.18 40.61L-394.17 40.61Q-392.76 41.03 -390.98 41.03Q-389.67 41.03 -388.6 40.93Q-387.53 40.85 -386.62 40.7L-386.6 40.69L-386.58 40.69Q-385.65 40.5 -384.91 40.26L-383.89 39.92L-383.89 34.38L-385.59 34.61Q-386.23 34.7 -387.33 34.77Q-388.41 34.84 -390.19 34.84Q-391 34.84 -391.48 34.69Q-391.64 34.62 -391.75 34.5Q-391.79 34.46 -391.82 34.41Q-392.07 34.02 -392.21 33.19Q-392.36 32.15 -392.36 30.48Q-392.36 28.76 -392.19 27.76Q-392.11 27.3 -391.99 26.97Q-391.9 26.72 -391.81 26.58Q-391.74 26.49 -391.65 26.42Q-391.56 26.35 -391.44 26.31Q-390.95 26.15 -390.19 26.15Q-389.21 26.15 -388.33 26.22L-388.31 26.22L-388.3 26.22Q-387.42 26.27 -386.75 26.35Q-386.08 26.44 -385.71 26.52L-383.89 26.93L-383.89 21.26L-384.86 20.89Q-385.54 20.64 -386.49 20.45Q-387.39 20.24 -388.51 20.11Q-389.64 19.96 -390.93 19.96Q-392.68 19.96 -394.1 20.41Q-394.85 20.66 -395.5 21.07Q-396.23 21.54 -396.81 22.22Q-397.89 23.45 -398.43 25.59Q-398.49 25.8 -398.54 26.03L-398.54 20.13L-405.09 20.13L-405.09 20.51L-405.68 20.45Q-407.07 20.3 -408.58 20.22Q-410.05 20.15 -411.37 20.15L-413.52 20.13Q-414.42 20.13 -415.33 20.37Q-415.77 20.49 -416.19 20.68Q-416.7 20.92 -417.17 21.27Q-417.26 21.35 -417.35 21.42Q-417.77 21.78 -418.1 22.24L-418.1 20.59L-419.44 20.45Q-420.83 20.3 -422.33 20.22Q-423.81 20.15 -425.13 20.15L-427.28 20.13Q-428.17 20.13 -429.08 20.37Q-429.53 20.49 -429.95 20.68Q-430.46 20.92 -430.92 21.27Q-431.02 21.35 -431.11 21.42Q-431.88 22.08 -432.34 23.09Q-432.84 24.18 -432.84 25.68L-432.84 34.26L-437.27 20.13L-440.37 20.13L-440.65 19.11L-440.93 20.13ZM-431.34 39.05L-431.34 39.39L-427.79 39.39L-427.79 32.57L-420.75 32.38L-420.75 29.57L-427.79 29.38L-427.79 26.36C-427.79 25.92 -427.67 25.58 -427.43 25.32C-427.17 25.05 -426.79 24.92 -426.3 24.92L-419.6 24.92L-419.6 21.94C-420.5 21.84 -421.43 21.77 -422.41 21.72Q-423.85 21.65 -425.15 21.65C-425.99 21.64 -426.71 21.63 -427.28 21.63Q-427.98 21.63 -428.7 21.82C-429.18 21.95 -429.62 22.16 -430.02 22.47C-430.42 22.77 -430.74 23.19 -430.98 23.72C-431.22 24.24 -431.34 24.9 -431.34 25.68L-431.34 39.05ZM-388.7 21.6Q-389.73 21.46 -390.93 21.46C-391.94 21.46 -392.84 21.59 -393.64 21.84C-394.44 22.1 -395.12 22.55 -395.68 23.21C-396.24 23.85 -396.67 24.76 -396.98 25.95Q-397.41 27.7 -397.41 30.46Q-397.41 33.31 -397 35.12Q-396.57 36.89 -395.75 37.85C-395.19 38.49 -394.52 38.93 -393.74 39.17C-392.94 39.41 -392.02 39.53 -390.98 39.53C-390.15 39.53 -389.39 39.5 -388.72 39.43C-388.05 39.39 -387.43 39.31 -386.87 39.22C-386.31 39.11 -385.82 38.98 -385.39 38.84L-385.39 36.1C-385.78 36.15 -386.28 36.2 -386.89 36.24C-387 36.25 -387.11 36.26 -387.23 36.27C-387.99 36.31 -388.97 36.34 -390.19 36.34C-390.91 36.34 -391.51 36.26 -391.99 36.1C-392.45 35.92 -392.82 35.63 -393.09 35.21C-393.36 34.78 -393.56 34.18 -393.69 33.41C-393.8 32.64 -393.86 31.67 -393.86 30.48C-393.86 29.25 -393.79 28.25 -393.67 27.48C-393.52 26.72 -393.31 26.13 -393.04 25.73C-392.75 25.31 -392.38 25.04 -391.91 24.89C-391.43 24.73 -390.86 24.65 -390.19 24.65C-389.5 24.65 -388.84 24.67 -388.22 24.72C-387.73 24.75 -387.29 24.78 -386.89 24.83C-386.78 24.84 -386.67 24.85 -386.56 24.87C-386.07 24.93 -385.67 25 -385.39 25.06L-385.39 22.3Q-385.96 22.08 -386.8 21.92C-387.36 21.79 -387.99 21.68 -388.7 21.6ZM-414.03 29.38L-414.03 26.36C-414.03 25.92 -413.91 25.58 -413.67 25.32C-413.41 25.05 -413.04 24.92 -412.54 24.92L-405.84 24.92L-405.84 21.94C-406.74 21.84 -407.68 21.77 -408.65 21.72Q-410.09 21.65 -411.39 21.65C-412.24 21.64 -412.95 21.63 -413.52 21.63Q-414.22 21.63 -414.94 21.82C-415.42 21.95 -415.86 22.16 -416.26 22.47C-416.66 22.77 -416.98 23.19 -417.22 23.72C-417.46 24.24 -417.58 24.9 -417.58 25.68L-417.58 39.39L-414.03 39.39L-414.03 32.57L-407 32.38L-407 29.57L-414.03 29.38ZM-450.13 37.89L-452.11 33.62L-452.74 32.26C-452.59 32.19 -452.43 32.12 -452.28 32.04C-452.09 31.94 -451.9 31.83 -451.71 31.71C-451.38 31.48 -451.08 31.19 -450.82 30.82C-450.55 30.45 -450.34 29.98 -450.18 29.4C-450.02 28.83 -449.94 28.13 -449.94 27.31C-449.94 26.16 -450.07 25.22 -450.35 24.48C-450.6 23.75 -450.96 23.17 -451.43 22.76C-451.89 22.34 -452.43 22.05 -453.03 21.89C-453.64 21.72 -454.3 21.63 -455 21.63L-462.35 21.63L-462.34 39.39L-458.79 39.39L-458.79 32.76C-458.58 32.78 -458.35 32.79 -458.1 32.79L-457.33 32.79L-457.29 32.79C-457.05 32.79 -456.81 32.8 -456.58 32.81L-455.91 32.81L-453.06 39.39L-449.43 39.39L-449.77 38.66L-450.13 37.89ZM-454.76 24.94C-455.02 24.86 -455.31 24.82 -455.63 24.82L-458.79 24.82L-458.79 29.96L-455.62 29.96C-455.3 29.96 -455.02 29.92 -454.76 29.84Q-454.59 29.78 -454.44 29.69Q-454.25 29.59 -454.09 29.43C-453.9 29.22 -453.75 28.95 -453.66 28.61Q-453.49 28.11 -453.49 27.31Q-453.49 26.57 -453.66 26.09C-453.75 25.76 -453.9 25.5 -454.09 25.32Q-454.26 25.15 -454.47 25.05L-454.47 25.05Q-454.61 24.98 -454.76 24.94ZM-457.29 28.46L-455.62 28.46Q-455.37 28.46 -455.21 28.4Q-455.19 28.4 -455.17 28.39Q-455.14 28.33 -455.1 28.2L-455.09 28.17L-455.08 28.14Q-454.99 27.86 -454.99 27.31Q-454.99 26.83 -455.07 26.59L-455.09 26.55L-455.1 26.5Q-455.12 26.43 -455.14 26.4L-455.14 26.39L-455.17 26.38L-455.21 26.37Q-455.37 26.32 -455.62 26.32L-457.29 26.32L-457.29 28.46ZM-467.66 24.82L-464.26 24.82L-464.26 21.63L-477.58 21.63L-477.58 24.82L-472.71 24.82L-472.71 39.39L-469.16 39.39L-469.16 24.82L-467.66 24.82ZM-569.14 20.13L-575.91 20.13L-570.94 40.89L-565 40.89L-562.51 32.27L-560.04 40.89L-554.1 40.89L-551.2 28.75L-551.2 35.59Q-551.2 37.35 -550.58 38.47L-550.57 38.5L-550.55 38.52Q-550.03 39.4 -549.27 39.95Q-549.08 40.1 -548.86 40.22Q-548.1 40.64 -547.3 40.81Q-547.11 40.85 -546.91 40.87Q-546.06 41.01 -545.38 41.01Q-544.17 41.01 -542.85 40.96Q-541.51 40.91 -540.23 40.84Q-538.89 40.76 -537.79 40.64L-536.46 40.49L-536.46 34.67L-544.64 34.67Q-544.64 34.63 -544.64 34.59L-544.64 33.6L-537.61 33.41L-537.61 27.68L-544.64 27.49L-544.64 26.42Q-544.62 26.42 -544.58 26.42L-536.46 26.42L-536.46 20.59L-537.8 20.45Q-538.76 20.35 -539.88 20.3Q-541.01 20.22 -542.42 20.18Q-543.81 20.13 -545.64 20.13Q-546.53 20.13 -547.44 20.37Q-547.89 20.49 -548.31 20.68Q-548.82 20.92 -549.29 21.27Q-549.36 21.33 -549.44 21.4L-549.14 20.13L-555.91 20.13L-557.67 27.88L-559.72 20.13L-565.29 20.13L-567.36 27.9L-569.14 20.13ZM-566.65 31.04L-567.48 34.16L-568.19 31.01L-570.33 21.63L-574 21.63L-573.65 23.13L-569.76 39.39L-566.13 39.39L-563.29 29.57L-562.51 26.86L-561.73 29.57L-558.91 39.39L-555.29 39.39L-551.04 21.63L-554.71 21.63L-556.85 31L-557.56 34.16L-558.39 31.03L-560.88 21.63L-564.14 21.63L-566.65 31.04ZM-546.14 28.95L-546.14 26.38Q-546.14 25.7 -545.81 25.34L-545.81 25.34Q-545.77 25.31 -545.74 25.28C-545.47 25.04 -545.08 24.92 -544.58 24.92L-537.96 24.92L-537.96 21.94C-538.57 21.88 -539.24 21.83 -539.98 21.8Q-541.08 21.72 -542.47 21.67C-543.38 21.64 -544.44 21.63 -545.64 21.63Q-546.34 21.63 -547.06 21.82C-547.54 21.95 -547.98 22.16 -548.38 22.47C-548.78 22.77 -549.1 23.19 -549.34 23.72C-549.58 24.24 -549.7 24.9 -549.7 25.68L-549.7 35.59Q-549.7 36.96 -549.26 37.75C-548.96 38.27 -548.58 38.65 -548.14 38.91C-547.67 39.16 -547.19 39.32 -546.7 39.39C-546.2 39.47 -545.76 39.51 -545.38 39.51C-544.59 39.51 -543.77 39.49 -542.91 39.46C-542.02 39.43 -541.16 39.39 -540.31 39.34C-539.45 39.29 -538.66 39.23 -537.96 39.15L-537.96 36.17L-544.66 36.17C-544.91 36.17 -545.16 36.13 -545.4 36.05C-545.62 35.96 -545.81 35.8 -545.95 35.57C-546.08 35.33 -546.14 35 -546.14 34.59L-546.14 32.14L-539.11 31.95L-539.11 29.14L-546.14 28.95ZM-522.2 20.13L-530.69 20.13L-530.69 40.89L-521.89 40.89Q-519.88 40.89 -518.43 40.32Q-517.6 39.99 -516.96 39.43Q-516.61 39.14 -516.33 38.79Q-516.09 38.48 -515.89 38.12Q-515.57 37.57 -515.37 36.9Q-515.32 37.06 -515.25 37.2L-515.24 37.22L-515.24 37.24Q-514.72 38.35 -513.88 39.12Q-513.59 39.39 -513.27 39.61L-513.25 39.62L-513.23 39.64Q-512.04 40.41 -510.49 40.74L-510.46 40.74Q-509.05 41.01 -507.45 41.01Q-505.81 41.01 -504.4 40.74Q-502.85 40.41 -501.65 39.61Q-501.35 39.41 -501.09 39.17Q-500.22 38.38 -499.67 37.23Q-499.01 35.78 -499.01 33.67L-499.01 24.96L-494.96 34.32L-494.96 40.89L-488.41 40.89L-488.41 34.32L-482.31 20.13L-489.16 20.13L-491.62 26.34L-494.11 20.13L-505.59 20.13L-505.59 33.65Q-505.59 33.95 -505.64 34.15Q-505.67 34.28 -505.72 34.34L-505.73 34.36L-505.74 34.38Q-505.84 34.53 -506.15 34.64Q-506.65 34.81 -507.45 34.81Q-508.28 34.81 -508.79 34.64Q-509.07 34.54 -509.21 34.36Q-509.25 34.29 -509.28 34.17Q-509.33 33.96 -509.33 33.65L-509.33 20.13L-515.88 20.13L-515.88 24.3Q-515.95 24.04 -516.04 23.81Q-516.39 22.82 -517.03 22.08Q-517.16 21.94 -517.29 21.8Q-517.33 21.76 -517.37 21.72Q-519.01 20.13 -522.2 20.13ZM-515.88 28.17Q-515.96 28.44 -516.05 28.69Q-516.33 29.45 -516.79 30.05Q-516.58 30.26 -516.38 30.5Q-516.1 30.82 -515.88 31.2L-515.88 28.17ZM-516.83 32.76C-516.99 32.25 -517.22 31.82 -517.52 31.47C-517.65 31.32 -517.77 31.18 -517.91 31.06C-518.1 30.89 -518.3 30.75 -518.51 30.63C-518.86 30.42 -519.23 30.27 -519.61 30.17C-519.1 30.04 -518.66 29.81 -518.29 29.48C-518.2 29.38 -518.11 29.29 -518.02 29.18C-517.79 28.89 -517.6 28.55 -517.45 28.16Q-517.14 27.34 -517.14 26.28C-517.14 24.8 -517.55 23.65 -518.36 22.85C-519.16 22.04 -520.44 21.63 -522.2 21.63L-529.19 21.63L-529.19 39.39L-521.89 39.39C-520.74 39.39 -519.77 39.24 -518.99 38.93C-518.19 38.61 -517.59 38.09 -517.19 37.37Q-516.56 36.29 -516.56 34.49C-516.56 33.84 -516.65 33.26 -516.83 32.76ZM-520.21 35.21C-520.04 34.88 -519.95 34.43 -519.95 33.87C-519.95 33.4 -520.04 33.01 -520.21 32.69C-520.39 32.37 -520.63 32.12 -520.93 31.95C-521.24 31.77 -521.59 31.68 -521.99 31.68L-525.64 31.68L-525.64 36.2L-521.99 36.2Q-521.36 36.2 -520.91 35.96C-520.6 35.8 -520.37 35.55 -520.21 35.21ZM-524.14 34.7L-521.99 34.7Q-521.74 34.7 -521.61 34.63Q-521.59 34.62 -521.57 34.57L-521.55 34.54L-521.54 34.52Q-521.51 34.46 -521.49 34.33Q-521.45 34.14 -521.45 33.87Q-521.45 33.56 -521.53 33.41Q-521.59 33.3 -521.68 33.25Q-521.79 33.18 -521.99 33.18L-524.14 33.18L-524.14 34.7ZM-510.45 35.21C-510.7 34.83 -510.83 34.31 -510.83 33.65L-510.83 21.63L-514.38 21.63L-514.38 33.67Q-514.38 35.45 -513.88 36.6C-513.53 37.36 -513.04 37.95 -512.41 38.38C-511.77 38.8 -511.03 39.09 -510.18 39.27C-509.33 39.43 -508.42 39.51 -507.45 39.51C-506.45 39.51 -505.54 39.43 -504.71 39.27C-503.86 39.09 -503.13 38.8 -502.5 38.38C-501.88 37.95 -501.39 37.36 -501.04 36.6C-500.69 35.84 -500.51 34.86 -500.51 33.67L-500.51 21.63L-504.09 21.63L-504.09 33.65Q-504.09 34.64 -504.49 35.21C-504.75 35.59 -505.13 35.88 -505.65 36.05C-506.14 36.23 -506.74 36.31 -507.45 36.31C-508.17 36.31 -508.78 36.23 -509.29 36.05C-509.79 35.88 -510.17 35.59 -510.45 35.21ZM-490.81 28.36L-491.62 30.39L-492.43 28.36L-495.12 21.63L-498.82 21.63L-498.17 23.13L-493.46 34.01L-493.46 39.39L-489.91 39.39L-489.91 34.01L-485.23 23.13L-484.58 21.63L-488.14 21.63L-490.81 28.36ZM-403.59 21.63L-403.59 39.39L-400.04 39.39L-400.04 21.63L-403.59 21.63ZM-438.89 30.98L-438.47 32.48L-442.83 32.48L-442.41 30.98L-441.43 27.46L-440.65 24.67L-439.87 27.46L-438.89 30.98ZM-440.44 30.98L-440.65 30.24L-440.86 30.98L-440.44 30.98ZM-522.14 27.45Q-522.16 27.45 -522.18 27.45L-524.14 27.45L-524.14 26.32L-522.23 26.32Q-522.14 26.32 -522.09 26.34Q-522.08 26.34 -522.07 26.35Q-522.02 26.53 -522.02 26.91Q-522.02 27.27 -522.14 27.45ZM-524.14 24.82L-522.23 24.82Q-521.79 24.82 -521.43 24.99Q-521.2 25.1 -521 25.28C-520.68 25.57 -520.52 26.07 -520.52 26.8C-520.52 26.84 -520.52 26.87 -520.52 26.91Q-520.52 27.78 -520.94 28.34L-520.94 28.34L-520.94 28.35Q-520.96 28.37 -520.98 28.4C-521.27 28.76 -521.67 28.95 -522.18 28.95L-525.64 28.95L-525.64 24.82L-524.14 24.82Z" fill="#FFFFFF" fill-opacity="1.000000" fill-rule="evenodd"/>
		<path id="We buy trAffic" d="M-150.06 21.3C-146.01 21.3 -142.97 23.62 -142.48 27.65L-146.21 27.65C-146.49 25.74 -147.95 24.56 -149.97 24.56C-152.67 24.56 -154.44 26.64 -154.44 30.27C-154.44 34 -152.64 35.97 -150 35.97C-148.03 35.97 -146.56 34.89 -146.21 33.03L-142.48 33.05C-142.88 36.26 -145.58 39.24 -150.05 39.24C-154.72 39.24 -158.18 35.96 -158.18 30.27C-158.18 24.56 -154.67 21.3 -150.06 21.3ZM-336.35 39L-339.94 39L-344.94 21.54L-340.9 21.54L-338.02 33.67L-337.87 33.67L-334.68 21.54L-331.23 21.54L-328.05 33.69L-327.9 33.69L-325.01 21.54L-320.98 21.54L-325.97 39L-329.57 39L-332.89 27.58L-333.03 27.58L-336.35 39ZM-307.21 39L-319.01 39L-319.01 21.54L-307.25 21.54L-307.25 24.58L-315.32 24.58L-315.32 28.74L-307.85 28.74L-307.85 31.78L-315.32 31.78L-315.32 35.95L-307.21 35.95L-307.21 39ZM-291.28 39L-298.74 39L-298.74 21.54L-291.75 21.54C-287.9 21.54 -285.96 23.4 -285.96 26.02C-285.96 28.07 -287.3 29.36 -289.11 29.77L-289.11 29.94C-287.13 30.03 -285.28 31.59 -285.28 34.17C-285.28 36.95 -287.36 39 -291.28 39ZM-272.1 32.56L-272.1 21.54L-268.41 21.54L-268.41 32.88C-268.41 36.69 -271.31 39.24 -275.64 39.24C-280 39.24 -282.88 36.69 -282.88 32.88L-282.88 21.54L-279.19 21.54L-279.19 32.56C-279.19 34.55 -277.78 36 -275.64 36C-273.5 36 -272.1 34.55 -272.1 32.56ZM-260.03 32.83L-266.4 21.54L-262.26 21.54L-258.28 29.06L-258.11 29.06L-254.14 21.54L-250 21.54L-256.37 32.83L-256.37 39L-260.03 39L-260.03 32.83ZM-237.75 24.58L-243.09 24.58L-243.09 21.54L-228.75 21.54L-228.75 24.58L-234.1 24.58L-234.1 39L-237.75 39L-237.75 24.58ZM-222.69 39L-226.38 39L-226.38 21.54L-219.5 21.54C-215.53 21.54 -213.24 23.77 -213.24 27.24C-213.24 29.63 -214.34 31.36 -216.33 32.21L-212.62 39L-216.69 39L-220 32.81L-222.69 32.81L-222.69 39ZM-206.33 35.02L-207.63 39L-211.58 39L-205.55 21.54L-200.8 21.54L-194.78 39L-198.74 39L-200.03 35.02L-206.33 35.02ZM-188.99 39L-192.68 39L-192.68 21.54L-181.13 21.54L-181.13 24.58L-188.99 24.58L-188.99 28.74L-181.9 28.74L-181.9 31.78L-188.99 31.78L-188.99 39ZM-174.96 39L-178.65 39L-178.65 21.54L-167.09 21.54L-167.09 24.58L-174.96 24.58L-174.96 28.74L-167.86 28.74L-167.86 31.78L-174.96 31.78L-174.96 39ZM-164.61 21.54L-160.92 21.54L-160.92 39L-164.61 39L-164.61 21.54ZM-295.05 24.52L-295.05 28.85L-292.31 28.85C-290.81 28.85 -289.68 28.01 -289.68 26.63C-289.68 25.37 -290.61 24.52 -292.25 24.52L-295.05 24.52ZM-222.69 24.56L-222.69 29.84L-220.19 29.84C-218.07 29.84 -217.04 28.97 -217.04 27.24C-217.04 25.5 -218.07 24.56 -220.21 24.56L-222.69 24.56ZM-203.24 25.53L-205.39 32.13L-200.96 32.13L-203.11 25.53L-203.24 25.53ZM-295.05 31.34L-295.05 35.98L-292.04 35.98C-289.98 35.98 -289.08 35.12 -289.08 33.8C-289.08 32.36 -290.19 31.34 -291.96 31.34L-295.05 31.34Z" fill="#FFFFFF" fill-opacity="1.000000" fill-rule="evenodd"/>
		<path id="We buy trAffic" d="M33.67 21.63L35.25 21.63L40.35 37.89L40.78 39.28L40.82 39.39L37.12 39.39L35.99 35.67L29.94 35.67L28.84 39.39L25.19 39.39L25.45 38.56L25.66 37.89L30.76 21.63L33.67 21.63ZM32.68 20.13L29.66 20.13L24.51 36.54L22.82 32.9Q23.5 32.42 24.01 31.69Q24.58 30.92 24.89 29.8Q25.18 28.74 25.18 27.31Q25.18 25.32 24.69 23.99Q24.18 22.52 23.19 21.64Q22.74 21.23 22.22 20.94Q21.64 20.62 20.98 20.45Q19.88 20.13 18.62 20.13L-5.47 20.13L-5.47 26.32L-0.59 26.32L-0.59 40.89L5.96 40.89L5.96 26.32L9.77 26.32L9.77 40.89L16.32 40.89L16.32 34.29Q16.52 34.29 16.71 34.3L19.58 40.89L29.96 40.89L31.06 37.17L34.88 37.17L36.01 40.89L47.33 40.89L47.33 34.03L54.36 33.84L54.36 28.11L47.33 27.92L47.33 26.42L54.54 26.42L54.54 40.89L61.09 40.89L61.09 34.03L68.12 33.84L68.12 28.11L61.09 27.92L61.09 26.42L68.53 26.42L68.53 40.89L75.08 40.89L75.08 35.11Q75.12 35.3 75.16 35.47Q75.67 37.59 76.73 38.84Q77.4 39.6 78.22 40.07Q78.79 40.41 79.44 40.61L79.45 40.61Q80.86 41.03 82.64 41.03Q83.95 41.03 85.02 40.93Q86.09 40.85 87 40.7L87.02 40.69L87.04 40.69Q87.97 40.5 88.71 40.26L89.73 39.92L89.73 34.38L88.03 34.61Q87.39 34.7 86.29 34.77Q85.21 34.84 83.43 34.84Q82.62 34.84 82.14 34.69Q81.97 34.62 81.86 34.5Q81.83 34.46 81.8 34.41Q81.55 34.02 81.41 33.19Q81.26 32.15 81.26 30.48Q81.26 28.76 81.43 27.76Q81.51 27.3 81.63 26.97Q81.72 26.72 81.81 26.58Q81.88 26.49 81.97 26.42Q82.06 26.35 82.18 26.31Q82.67 26.15 83.43 26.15Q84.41 26.15 85.28 26.22L85.3 26.22L85.32 26.22Q86.2 26.27 86.86 26.35Q87.54 26.44 87.91 26.52L89.73 26.93L89.73 21.26L88.76 20.89Q88.08 20.64 87.13 20.45Q86.22 20.24 85.11 20.11Q83.98 19.96 82.69 19.96Q80.94 19.96 79.52 20.41Q78.76 20.66 78.12 21.07Q77.39 21.54 76.81 22.22Q75.73 23.45 75.18 25.59Q75.13 25.8 75.08 26.03L75.08 20.13L68.53 20.13L68.53 20.51L67.93 20.45Q66.55 20.3 65.04 20.22Q63.56 20.15 62.25 20.15L60.09 20.13Q59.2 20.13 58.29 20.37Q57.84 20.49 57.43 20.68Q56.91 20.92 56.45 21.27Q56.35 21.35 56.26 21.42Q55.84 21.78 55.52 22.24L55.52 20.59L54.18 20.45Q52.79 20.3 51.28 20.22Q49.81 20.15 48.49 20.15L46.34 20.13Q45.44 20.13 44.53 20.37Q44.08 20.49 43.67 20.68Q43.16 20.92 42.69 21.27Q42.6 21.35 42.51 21.42Q41.74 22.08 41.27 23.09Q40.78 24.18 40.78 25.68L40.78 34.26L36.35 20.13L33.25 20.13L32.97 19.11L32.68 20.13ZM42.28 39.05L42.28 39.39L45.83 39.39L45.83 32.57L52.86 32.38L52.86 29.57L45.83 29.38L45.83 26.36C45.83 25.92 45.95 25.58 46.19 25.32C46.45 25.05 46.82 24.92 47.32 24.92L54.02 24.92L54.02 21.94C53.12 21.84 52.18 21.77 51.21 21.72Q49.77 21.65 48.47 21.65C47.62 21.64 46.91 21.63 46.34 21.63Q45.64 21.63 44.92 21.82C44.44 21.95 44 22.16 43.6 22.47C43.2 22.77 42.88 23.19 42.64 23.72C42.4 24.24 42.28 24.9 42.28 25.68L42.28 39.05ZM84.92 21.6Q83.89 21.46 82.69 21.46C81.68 21.46 80.77 21.59 79.97 21.84C79.17 22.1 78.49 22.55 77.93 23.21C77.37 23.85 76.94 24.76 76.64 25.95Q76.21 27.7 76.21 30.46Q76.21 33.31 76.62 35.12Q77.05 36.89 77.86 37.85C78.42 38.49 79.1 38.93 79.88 39.17C80.68 39.41 81.6 39.53 82.64 39.53C83.47 39.53 84.22 39.5 84.9 39.43C85.57 39.39 86.18 39.31 86.74 39.22C87.3 39.11 87.8 38.98 88.23 38.84L88.23 36.1C87.84 36.15 87.34 36.2 86.73 36.24C86.62 36.25 86.5 36.26 86.38 36.27C85.63 36.31 84.65 36.34 83.43 36.34C82.71 36.34 82.11 36.26 81.63 36.1C81.17 35.92 80.8 35.63 80.53 35.21C80.26 34.78 80.06 34.18 79.93 33.41C79.82 32.64 79.76 31.67 79.76 30.48C79.76 29.25 79.82 28.25 79.95 27.48C80.09 26.72 80.3 26.13 80.57 25.73C80.86 25.31 81.24 25.04 81.7 24.89C82.18 24.73 82.76 24.65 83.43 24.65C84.12 24.65 84.77 24.67 85.4 24.72C85.89 24.75 86.33 24.78 86.73 24.83C86.84 24.84 86.95 24.85 87.05 24.87C87.55 24.93 87.94 25 88.23 25.06L88.23 22.3Q87.65 22.08 86.81 21.92C86.25 21.79 85.62 21.68 84.92 21.6ZM59.59 29.38L59.59 26.36C59.59 25.92 59.71 25.58 59.95 25.32C60.21 25.05 60.58 24.92 61.08 24.92L67.77 24.92L67.77 21.94C66.88 21.84 65.94 21.77 64.97 21.72Q63.53 21.65 62.23 21.65C61.38 21.64 60.67 21.63 60.09 21.63Q59.4 21.63 58.68 21.82C58.2 21.95 57.76 22.16 57.36 22.47C56.96 22.77 56.64 23.19 56.4 23.72C56.16 24.24 56.04 24.9 56.04 25.68L56.04 39.39L59.59 39.39L59.59 32.57L66.62 32.38L66.62 29.57L59.59 29.38ZM23.49 37.89L21.51 33.62L20.87 32.26C21.03 32.19 21.19 32.12 21.34 32.04C21.53 31.94 21.72 31.83 21.9 31.71C22.24 31.48 22.54 31.19 22.79 30.82C23.06 30.45 23.28 29.98 23.44 29.4C23.6 28.83 23.68 28.13 23.68 27.31C23.68 26.16 23.54 25.22 23.27 24.48C23.02 23.75 22.66 23.17 22.19 22.76C21.73 22.34 21.19 22.05 20.58 21.89C19.98 21.72 19.32 21.63 18.62 21.63L11.27 21.63L11.27 39.39L14.82 39.39L14.82 32.76C15.03 32.78 15.26 32.79 15.52 32.79L16.29 32.79L16.32 32.79C16.57 32.79 16.8 32.8 17.03 32.81L17.7 32.81L20.56 39.39L24.18 39.39L23.85 38.66L23.49 37.89ZM18.86 24.94C18.6 24.86 18.31 24.82 17.99 24.82L14.82 24.82L14.82 29.96L17.99 29.96C18.31 29.96 18.6 29.92 18.86 29.84Q19.03 29.78 19.18 29.69Q19.37 29.59 19.53 29.43C19.72 29.22 19.86 28.95 19.96 28.61Q20.13 28.11 20.13 27.31Q20.13 26.57 19.96 26.09C19.86 25.76 19.72 25.5 19.53 25.32Q19.36 25.15 19.15 25.05L19.15 25.05Q19.01 24.98 18.86 24.94ZM16.32 28.46L17.99 28.46Q18.24 28.46 18.41 28.4Q18.43 28.4 18.44 28.39Q18.48 28.33 18.52 28.2L18.53 28.17L18.54 28.14Q18.63 27.86 18.63 27.31Q18.63 26.83 18.54 26.59L18.53 26.55L18.52 26.5Q18.5 26.43 18.48 26.4L18.47 26.39L18.45 26.38L18.41 26.37Q18.24 26.32 17.99 26.32L16.32 26.32L16.32 28.46ZM5.96 24.82L9.35 24.82L9.35 21.63L-3.97 21.63L-3.97 24.82L0.91 24.82L0.91 39.39L4.46 39.39L4.46 24.82L5.96 24.82ZM-95.52 20.13L-102.29 20.13L-97.32 40.89L-91.39 40.89L-88.9 32.27L-86.42 40.89L-80.48 40.89L-77.58 28.75L-77.58 35.59Q-77.58 37.35 -76.96 38.47L-76.95 38.5L-76.94 38.52Q-76.42 39.4 -75.66 39.95Q-75.46 40.1 -75.24 40.22Q-74.49 40.64 -73.68 40.81Q-73.49 40.85 -73.3 40.87Q-72.45 41.01 -71.76 41.01Q-70.56 41.01 -69.23 40.96Q-67.9 40.91 -66.61 40.84Q-65.27 40.76 -64.17 40.64L-62.84 40.49L-62.84 34.67L-71.03 34.67Q-71.03 34.63 -71.03 34.59L-71.03 33.6L-64 33.41L-64 27.68L-71.03 27.49L-71.03 26.42Q-71 26.42 -70.97 26.42L-62.84 26.42L-62.84 20.59L-64.19 20.45Q-65.14 20.35 -66.26 20.3Q-67.39 20.22 -68.8 20.18Q-70.2 20.13 -72.02 20.13Q-72.92 20.13 -73.83 20.37Q-74.27 20.49 -74.69 20.68Q-75.2 20.92 -75.67 21.27Q-75.75 21.33 -75.82 21.4L-75.52 20.13L-82.29 20.13L-84.05 27.88L-86.1 20.13L-91.68 20.13L-93.75 27.9L-95.52 20.13ZM-93.03 31.04L-93.86 34.16L-94.57 31.01L-96.72 21.63L-100.39 21.63L-100.03 23.13L-96.14 39.39L-92.51 39.39L-89.67 29.57L-88.89 26.86L-88.11 29.57L-85.29 39.39L-81.67 39.39L-77.42 21.63L-81.09 21.63L-83.23 31L-83.95 34.16L-84.77 31.03L-87.26 21.63L-90.52 21.63L-93.03 31.04ZM-72.53 28.95L-72.53 26.38Q-72.53 25.7 -72.19 25.34L-72.19 25.34Q-72.16 25.31 -72.12 25.28C-71.85 25.04 -71.46 24.92 -70.97 24.92L-64.34 24.92L-64.34 21.94C-64.95 21.88 -65.62 21.83 -66.36 21.8Q-67.46 21.72 -68.86 21.67C-69.77 21.64 -70.82 21.63 -72.02 21.63Q-72.72 21.63 -73.44 21.82C-73.92 21.95 -74.36 22.16 -74.76 22.47C-75.16 22.77 -75.48 23.19 -75.72 23.72C-75.96 24.24 -76.08 24.9 -76.08 25.68L-76.08 35.59Q-76.08 36.96 -75.65 37.75C-75.34 38.27 -74.97 38.65 -74.52 38.91C-74.06 39.16 -73.58 39.32 -73.08 39.39C-72.58 39.47 -72.14 39.51 -71.76 39.51C-70.97 39.51 -70.15 39.49 -69.29 39.46C-68.41 39.43 -67.54 39.39 -66.7 39.34C-65.83 39.29 -65.05 39.23 -64.34 39.15L-64.34 36.17L-71.04 36.17C-71.3 36.17 -71.54 36.13 -71.78 36.05C-72.01 35.96 -72.19 35.8 -72.34 35.57C-72.46 35.33 -72.53 35 -72.53 34.59L-72.53 32.14L-65.5 31.95L-65.5 29.14L-72.53 28.95ZM-48.59 20.13L-57.07 20.13L-57.07 40.89L-48.28 40.89Q-46.27 40.89 -44.81 40.32Q-43.98 39.99 -43.34 39.43Q-43 39.14 -42.72 38.79Q-42.47 38.48 -42.27 38.12Q-41.95 37.57 -41.76 36.9Q-41.7 37.06 -41.63 37.2L-41.63 37.22L-41.62 37.24Q-41.1 38.35 -40.27 39.12Q-39.98 39.39 -39.65 39.61L-39.63 39.62L-39.61 39.64Q-38.42 40.41 -36.87 40.74L-36.84 40.74Q-35.43 41.01 -33.83 41.01Q-32.2 41.01 -30.79 40.74Q-29.23 40.41 -28.03 39.61Q-27.74 39.41 -27.47 39.17Q-26.6 38.38 -26.06 37.23Q-25.39 35.78 -25.39 33.67L-25.39 24.96L-21.35 34.32L-21.35 40.89L-14.8 40.89L-14.8 34.32L-8.69 20.13L-15.54 20.13L-18 26.34L-20.49 20.13L-31.97 20.13L-31.97 33.65Q-31.97 33.95 -32.02 34.15Q-32.05 34.28 -32.1 34.34L-32.11 34.36L-32.12 34.38Q-32.23 34.53 -32.53 34.64Q-33.03 34.81 -33.83 34.81Q-34.66 34.81 -35.17 34.64Q-35.46 34.54 -35.59 34.36Q-35.63 34.29 -35.66 34.17Q-35.71 33.96 -35.71 33.65L-35.71 20.13L-42.26 20.13L-42.26 24.3Q-42.33 24.04 -42.42 23.81Q-42.77 22.82 -43.41 22.08Q-43.54 21.94 -43.68 21.8Q-43.72 21.76 -43.75 21.72Q-45.39 20.13 -48.59 20.13ZM-42.26 28.17Q-42.34 28.44 -42.43 28.69Q-42.71 29.45 -43.18 30.05Q-42.96 30.26 -42.76 30.5Q-42.48 30.82 -42.26 31.2L-42.26 28.17ZM-43.21 32.76C-43.37 32.25 -43.6 31.82 -43.91 31.47C-44.03 31.32 -44.16 31.18 -44.29 31.06C-44.48 30.89 -44.68 30.75 -44.89 30.63C-45.24 30.42 -45.61 30.27 -46 30.17C-45.48 30.04 -45.04 29.81 -44.68 29.48C-44.58 29.38 -44.49 29.29 -44.41 29.18C-44.17 28.89 -43.98 28.55 -43.84 28.16Q-43.52 27.34 -43.52 26.28C-43.52 24.8 -43.93 23.65 -44.75 22.85C-45.55 22.04 -46.83 21.63 -48.59 21.63L-55.57 21.63L-55.57 39.39L-48.28 39.39C-47.12 39.39 -46.16 39.24 -45.37 38.93C-44.57 38.61 -43.97 38.09 -43.57 37.37Q-42.95 36.29 -42.95 34.49C-42.95 33.84 -43.04 33.26 -43.21 32.76ZM-46.6 35.21C-46.42 34.88 -46.33 34.43 -46.33 33.87C-46.33 33.4 -46.42 33.01 -46.6 32.69C-46.77 32.37 -47.01 32.12 -47.32 31.95C-47.62 31.77 -47.97 31.68 -48.37 31.68L-52.02 31.68L-52.02 36.2L-48.37 36.2Q-47.75 36.2 -47.29 35.96C-46.99 35.8 -46.76 35.55 -46.6 35.21ZM-50.52 34.7L-48.37 34.7Q-48.12 34.7 -47.99 34.63Q-47.98 34.62 -47.95 34.57L-47.94 34.54L-47.92 34.52Q-47.89 34.46 -47.87 34.33Q-47.83 34.14 -47.83 33.87Q-47.83 33.56 -47.91 33.41Q-47.97 33.3 -48.07 33.25Q-48.17 33.18 -48.37 33.18L-50.52 33.18L-50.52 34.7ZM-36.83 35.21C-37.08 34.83 -37.21 34.31 -37.21 33.65L-37.21 21.63L-40.76 21.63L-40.76 33.67Q-40.76 35.45 -40.26 36.6C-39.91 37.36 -39.42 37.95 -38.8 38.38C-38.16 38.8 -37.41 39.09 -36.56 39.27C-35.72 39.43 -34.8 39.51 -33.83 39.51C-32.84 39.51 -31.92 39.43 -31.09 39.27C-30.24 39.09 -29.51 38.8 -28.88 38.38C-28.26 37.95 -27.77 37.36 -27.42 36.6C-27.07 35.84 -26.89 34.86 -26.89 33.67L-26.89 21.63L-30.47 21.63L-30.47 33.65Q-30.47 34.64 -30.88 35.21C-31.13 35.59 -31.52 35.88 -32.03 36.05C-32.52 36.23 -33.12 36.31 -33.83 36.31C-34.55 36.31 -35.16 36.23 -35.68 36.05C-36.17 35.88 -36.56 35.59 -36.83 35.21ZM-17.19 28.36L-18 30.39L-18.81 28.36L-21.5 21.63L-25.2 21.63L-24.55 23.13L-19.85 34.01L-19.85 39.39L-16.3 39.39L-16.3 34.01L-11.61 23.13L-10.97 21.63L-14.52 21.63L-17.19 28.36ZM70.03 21.63L70.03 39.39L73.58 39.39L73.58 21.63L70.03 21.63ZM34.73 30.98L35.15 32.48L30.78 32.48L31.2 30.98L32.19 27.46L32.97 24.67L33.75 27.46L34.73 30.98ZM33.17 30.98L32.97 30.24L32.76 30.98L33.17 30.98ZM-48.53 27.45Q-48.54 27.45 -48.56 27.45L-50.52 27.45L-50.52 26.32L-48.61 26.32Q-48.52 26.32 -48.47 26.34Q-48.46 26.34 -48.45 26.35Q-48.4 26.53 -48.41 26.91Q-48.41 27.27 -48.53 27.45ZM-50.52 24.82L-48.61 24.82Q-48.17 24.82 -47.81 24.99Q-47.58 25.1 -47.39 25.28C-47.07 25.57 -46.91 26.07 -46.91 26.8C-46.91 26.84 -46.91 26.87 -46.91 26.91Q-46.91 27.78 -47.32 28.34L-47.32 28.34L-47.33 28.35Q-47.34 28.37 -47.36 28.4C-47.65 28.76 -48.05 28.95 -48.56 28.95L-52.02 28.95L-52.02 24.82L-50.52 24.82Z" fill="#FFFFFF" fill-opacity="1.000000" fill-rule="evenodd"/>
		<path id="We buy trAffic" d="M323.56 21.3C327.6 21.3 330.65 23.62 331.14 27.65L327.41 27.65C327.13 25.74 325.67 24.56 323.65 24.56C320.95 24.56 319.17 26.64 319.17 30.27C319.17 34 320.97 35.97 323.62 35.97C325.59 35.97 327.06 34.89 327.41 33.03L331.14 33.05C330.74 36.26 328.04 39.24 323.56 39.24C318.89 39.24 315.44 35.96 315.44 30.27C315.44 24.56 318.95 21.3 323.56 21.3ZM137.27 39L133.67 39L128.68 21.54L132.71 21.54L135.6 33.67L135.75 33.67L138.94 21.54L142.39 21.54L145.57 33.69L145.72 33.69L148.61 21.54L152.64 21.54L147.64 39L144.05 39L140.72 27.58L140.59 27.58L137.27 39ZM166.4 39L154.61 39L154.61 21.54L166.37 21.54L166.37 24.58L158.3 24.58L158.3 28.74L165.77 28.74L165.77 31.78L158.3 31.78L158.3 35.95L166.4 35.95L166.4 39ZM182.34 39L174.88 39L174.88 21.54L181.87 21.54C185.72 21.54 187.66 23.4 187.66 26.02C187.66 28.07 186.32 29.36 184.51 29.77L184.51 29.94C186.49 30.03 188.34 31.59 188.34 34.17C188.34 36.95 186.26 39 182.34 39ZM201.52 32.56L201.52 21.54L205.21 21.54L205.21 32.88C205.21 36.69 202.31 39.24 197.97 39.24C193.62 39.24 190.74 36.69 190.74 32.88L190.74 21.54L194.43 21.54L194.43 32.56C194.43 34.55 195.84 36 197.97 36C200.12 36 201.52 34.55 201.52 32.56ZM213.59 32.83L207.22 21.54L211.35 21.54L215.33 29.06L215.5 29.06L219.48 21.54L223.62 21.54L217.25 32.83L217.25 39L213.59 39L213.59 32.83ZM235.87 24.58L230.53 24.58L230.53 21.54L244.86 21.54L244.86 24.58L239.52 24.58L239.52 39L235.87 39L235.87 24.58ZM250.93 39L247.24 39L247.23 21.54L254.12 21.54C258.09 21.54 260.38 23.77 260.38 27.24C260.38 29.63 259.28 31.36 257.29 32.21L261 39L256.93 39L253.62 32.81L250.93 32.81L250.93 39ZM267.29 35.02L265.99 39L262.04 39L268.06 21.54L272.82 21.54L278.83 39L274.88 39L273.58 35.02L267.29 35.02ZM284.63 39L280.93 39L280.93 21.54L292.49 21.54L292.49 24.58L284.63 24.58L284.63 28.74L291.72 28.74L291.72 31.78L284.63 31.78L284.63 39ZM298.66 39L294.97 39L294.97 21.54L306.53 21.54L306.53 24.58L298.66 24.58L298.66 28.74L305.76 28.74L305.76 31.78L298.66 31.78L298.66 39ZM309.01 21.54L312.7 21.54L312.7 39L309.01 39L309.01 21.54ZM178.57 24.52L178.57 28.85L181.3 28.85C182.81 28.85 183.94 28.01 183.94 26.63C183.94 25.37 183.01 24.52 181.37 24.52L178.57 24.52ZM250.93 24.56L250.93 29.84L253.43 29.84C255.54 29.84 256.57 28.97 256.57 27.24C256.57 25.5 255.54 24.56 253.41 24.56L250.93 24.56ZM270.37 25.53L268.22 32.13L272.66 32.13L270.51 25.53L270.37 25.53ZM178.57 31.34L178.57 35.98L181.57 35.98C183.64 35.98 184.53 35.12 184.53 33.8C184.53 32.36 183.43 31.34 181.66 31.34L178.57 31.34Z" fill="#FFFFFF" fill-opacity="1.000000" fill-rule="evenodd"/>
		<path id="We buy trAffic" d="M507.29 21.63L508.87 21.63L513.96 37.89L514.4 39.28L514.43 39.39L510.74 39.39L509.61 35.67L503.56 35.67L502.46 39.39L498.81 39.39L499.07 38.56L499.28 37.89L504.38 21.63L507.29 21.63ZM506.3 20.13L503.28 20.13L498.13 36.54L496.44 32.9Q497.12 32.42 497.63 31.69Q498.19 30.92 498.5 29.8Q498.8 28.74 498.8 27.31Q498.8 25.32 498.31 23.99Q497.8 22.52 496.81 21.64Q496.36 21.23 495.84 20.94Q495.26 20.62 494.6 20.45Q493.49 20.13 492.23 20.13L468.15 20.13L468.15 26.32L473.02 26.32L473.02 40.89L479.58 40.89L479.58 26.32L483.39 26.32L483.39 40.89L489.94 40.89L489.94 34.29Q490.14 34.29 490.33 34.3L493.2 40.89L503.58 40.89L504.68 37.17L508.5 37.17L509.63 40.89L520.95 40.89L520.95 34.03L527.98 33.84L527.98 28.11L520.95 27.92L520.95 26.42L528.16 26.42L528.16 40.89L534.71 40.89L534.71 34.03L541.74 33.84L541.74 28.11L534.71 27.92L534.71 26.42L542.15 26.42L542.15 40.89L548.7 40.89L548.7 35.11Q548.74 35.3 548.78 35.47Q549.29 37.59 550.35 38.84Q551.01 39.6 551.84 40.07Q552.41 40.41 553.06 40.61L553.07 40.61Q554.48 41.03 556.26 41.03Q557.57 41.03 558.64 40.93Q559.71 40.85 560.62 40.7L560.64 40.69L560.65 40.69Q561.59 40.5 562.32 40.26L563.35 39.92L563.35 34.38L561.64 34.61Q561 34.7 559.9 34.77Q558.83 34.84 557.05 34.84Q556.24 34.84 555.76 34.69Q555.59 34.62 555.48 34.5Q555.45 34.46 555.41 34.41Q555.17 34.02 555.03 33.19Q554.88 32.15 554.88 30.48Q554.88 28.76 555.04 27.76Q555.13 27.3 555.25 26.97Q555.34 26.72 555.43 26.58Q555.49 26.49 555.58 26.42Q555.68 26.35 555.8 26.31Q556.28 26.15 557.05 26.15Q558.02 26.15 558.9 26.22L558.92 26.22L558.94 26.22Q559.82 26.27 560.48 26.35Q561.16 26.44 561.52 26.52L563.35 26.93L563.35 21.26L562.38 20.89Q561.69 20.64 560.75 20.45Q559.84 20.24 558.73 20.11Q557.6 19.96 556.31 19.96Q554.56 19.96 553.14 20.41Q552.38 20.66 551.74 21.07Q551.01 21.54 550.42 22.22Q549.35 23.45 548.8 25.59Q548.75 25.8 548.7 26.03L548.7 20.13L542.15 20.13L542.15 20.51L541.55 20.45Q540.16 20.3 538.66 20.22Q537.18 20.15 535.87 20.15L533.71 20.13Q532.82 20.13 531.91 20.37Q531.46 20.49 531.05 20.68Q530.53 20.92 530.07 21.27Q529.97 21.35 529.88 21.42Q529.46 21.78 529.13 22.24L529.13 20.59L527.79 20.45Q526.41 20.3 524.9 20.22Q523.42 20.15 522.11 20.15L519.95 20.13Q519.06 20.13 518.15 20.37Q517.7 20.49 517.29 20.68Q516.77 20.92 516.31 21.27Q516.21 21.35 516.12 21.42Q515.35 22.08 514.89 23.09Q514.4 24.18 514.4 25.68L514.4 34.26L509.97 20.13L506.87 20.13L506.59 19.11L506.3 20.13ZM515.9 39.05L515.9 39.39L519.45 39.39L519.45 32.57L526.48 32.38L526.48 29.57L519.45 29.38L519.45 26.36C519.45 25.92 519.57 25.58 519.81 25.32C520.07 25.05 520.44 24.92 520.94 24.92L527.63 24.92L527.63 21.94C526.74 21.84 525.8 21.77 524.83 21.72Q523.39 21.65 522.09 21.65C521.24 21.64 520.53 21.63 519.95 21.63Q519.26 21.63 518.54 21.82C518.06 21.95 517.62 22.16 517.22 22.47C516.82 22.77 516.5 23.19 516.26 23.72C516.02 24.24 515.9 24.9 515.9 25.68L515.9 39.05ZM558.54 21.6Q557.51 21.46 556.31 21.46C555.3 21.46 554.39 21.59 553.59 21.84C552.79 22.1 552.11 22.55 551.55 23.21C550.99 23.85 550.56 24.76 550.26 25.95Q549.83 27.7 549.83 30.46Q549.83 33.31 550.23 35.12Q550.67 36.89 551.48 37.85C552.04 38.49 552.71 38.93 553.5 39.17C554.3 39.41 555.22 39.53 556.26 39.53C557.09 39.53 557.84 39.5 558.51 39.43C559.19 39.39 559.8 39.31 560.36 39.22C560.92 39.11 561.42 38.98 561.85 38.84L561.85 36.1C561.46 36.15 560.96 36.2 560.35 36.24C560.24 36.25 560.12 36.26 560 36.27C559.25 36.31 558.27 36.34 557.05 36.34C556.33 36.34 555.73 36.26 555.25 36.1C554.78 35.92 554.42 35.63 554.15 35.21C553.87 34.78 553.67 34.18 553.55 33.41C553.43 32.64 553.38 31.67 553.38 30.48C553.38 29.25 553.44 28.25 553.57 27.48C553.71 26.72 553.92 26.13 554.19 25.73C554.48 25.31 554.86 25.04 555.32 24.89C555.8 24.73 556.38 24.65 557.05 24.65C557.74 24.65 558.39 24.67 559.02 24.72C559.51 24.75 559.95 24.78 560.35 24.83C560.46 24.84 560.57 24.85 560.67 24.87C561.17 24.93 561.56 25 561.85 25.06L561.85 22.3Q561.27 22.08 560.43 21.92C559.87 21.79 559.24 21.68 558.54 21.6ZM533.21 29.38L533.21 26.36C533.21 25.92 533.33 25.58 533.57 25.32C533.82 25.05 534.2 24.92 534.7 24.92L541.39 24.92L541.39 21.94C540.5 21.84 539.56 21.77 538.58 21.72Q537.14 21.65 535.85 21.65C535 21.64 534.29 21.63 533.71 21.63Q533.02 21.63 532.3 21.82C531.82 21.95 531.38 22.16 530.98 22.47C530.58 22.77 530.26 23.19 530.02 23.72C529.78 24.24 529.66 24.9 529.66 25.68L529.66 39.39L533.21 39.39L533.21 32.57L540.24 32.38L540.24 29.57L533.21 29.38ZM497.11 37.89L495.12 33.62L494.49 32.26C494.65 32.19 494.8 32.12 494.96 32.04C495.15 31.94 495.34 31.83 495.52 31.71C495.86 31.48 496.15 31.19 496.41 30.82C496.68 30.45 496.9 29.98 497.06 29.4C497.22 28.83 497.3 28.13 497.3 27.31C497.3 26.16 497.16 25.22 496.89 24.48C496.63 23.75 496.27 23.17 495.81 22.76C495.35 22.34 494.81 22.05 494.2 21.89C493.59 21.72 492.94 21.63 492.23 21.63L484.89 21.63L484.89 39.39L488.44 39.39L488.44 32.76C488.65 32.78 488.88 32.79 489.14 32.79L489.91 32.79L489.94 32.79C490.19 32.79 490.42 32.8 490.65 32.81L491.32 32.81L494.18 39.39L497.8 39.39L497.47 38.66L497.11 37.89ZM492.47 24.94C492.22 24.86 491.93 24.82 491.61 24.82L488.44 24.82L488.44 29.96L491.61 29.96C491.93 29.96 492.22 29.92 492.47 29.84Q492.65 29.78 492.8 29.69Q492.99 29.59 493.15 29.43C493.34 29.22 493.48 28.95 493.58 28.61Q493.75 28.11 493.75 27.31Q493.75 26.57 493.58 26.09C493.48 25.76 493.34 25.5 493.15 25.32Q492.97 25.15 492.77 25.05L492.77 25.05Q492.63 24.98 492.47 24.94ZM489.94 28.46L491.61 28.46Q491.86 28.46 492.03 28.4Q492.05 28.4 492.06 28.39Q492.1 28.33 492.14 28.2L492.15 28.17L492.16 28.14Q492.25 27.86 492.25 27.31Q492.25 26.83 492.16 26.59L492.15 26.55L492.14 26.5Q492.12 26.43 492.1 26.4L492.09 26.39L492.07 26.38L492.03 26.37Q491.86 26.32 491.61 26.32L489.94 26.32L489.94 28.46ZM479.58 24.82L482.97 24.82L482.97 21.63L469.65 21.63L469.65 24.82L474.52 24.82L474.52 39.39L478.08 39.39L478.08 24.82L479.58 24.82ZM378.1 20.13L371.33 20.13L376.3 40.89L382.23 40.89L384.72 32.27L387.2 40.89L393.14 40.89L396.04 28.75L396.04 35.59Q396.04 37.35 396.65 38.47L396.67 38.5L396.68 38.52Q397.2 39.4 397.96 39.95Q398.16 40.1 398.37 40.22Q399.13 40.64 399.94 40.81Q400.13 40.85 400.32 40.87Q401.17 41.01 401.86 41.01Q403.06 41.01 404.39 40.96Q405.72 40.91 407.01 40.84Q408.35 40.76 409.44 40.64L410.78 40.49L410.78 34.67L402.59 34.67Q402.59 34.63 402.59 34.59L402.59 33.6L409.62 33.41L409.62 27.68L402.59 27.49L402.59 26.42Q402.62 26.42 402.65 26.42L410.78 26.42L410.77 20.59L409.43 20.45Q408.47 20.35 407.36 20.3Q406.23 20.22 404.82 20.18Q403.42 20.13 401.59 20.13Q400.7 20.13 399.79 20.37Q399.34 20.49 398.93 20.68Q398.41 20.92 397.95 21.27Q397.87 21.33 397.8 21.4L398.1 20.13L391.33 20.13L389.56 27.88L387.51 20.13L381.94 20.13L379.87 27.9L378.1 20.13ZM380.59 31.04L379.76 34.16L379.04 31.01L376.9 21.63L373.23 21.63L373.59 23.13L377.48 39.39L381.1 39.39L383.94 29.57L384.73 26.86L385.51 29.57L388.33 39.39L391.95 39.39L396.2 21.63L392.53 21.63L390.39 31L389.67 34.16L388.85 31.03L386.36 21.63L383.1 21.63L380.59 31.04ZM401.09 28.95L401.09 26.38Q401.09 25.7 401.43 25.34L401.43 25.34Q401.46 25.31 401.5 25.28C401.77 25.04 402.16 24.92 402.65 24.92L409.28 24.92L409.28 21.94C408.67 21.88 408 21.83 407.26 21.8Q406.15 21.72 404.76 21.67C403.85 21.64 402.79 21.63 401.59 21.63Q400.9 21.63 400.18 21.82C399.7 21.95 399.26 22.16 398.86 22.47C398.46 22.77 398.14 23.19 397.9 23.72C397.66 24.24 397.54 24.9 397.54 25.68L397.54 35.59Q397.54 36.96 397.97 37.75C398.28 38.27 398.65 38.65 399.1 38.91C399.56 39.16 400.04 39.32 400.54 39.39C401.04 39.47 401.48 39.51 401.86 39.51C402.64 39.51 403.47 39.49 404.33 39.46C405.21 39.43 406.08 39.39 406.92 39.34C407.79 39.29 408.57 39.23 409.28 39.15L409.28 36.17L402.58 36.17C402.32 36.17 402.08 36.13 401.84 36.05C401.61 35.96 401.43 35.8 401.28 35.57C401.16 35.33 401.09 35 401.09 34.59L401.09 32.14L408.12 31.95L408.12 29.14L401.09 28.95ZM425.03 20.13L416.55 20.13L416.55 40.89L425.34 40.89Q427.35 40.89 428.8 40.32Q429.64 39.99 430.28 39.43Q430.62 39.14 430.9 38.79Q431.15 38.48 431.35 38.12Q431.67 37.57 431.86 36.9Q431.92 37.06 431.98 37.2L431.99 37.22L432 37.24Q432.52 38.35 433.35 39.12Q433.64 39.39 433.97 39.61L433.99 39.62L434 39.64Q435.2 40.41 436.75 40.74L436.78 40.74Q438.19 41.01 439.79 41.01Q441.42 41.01 442.83 40.74Q444.39 40.41 445.59 39.61Q445.88 39.41 446.15 39.17Q447.02 38.38 447.56 37.23Q448.23 35.78 448.23 33.67L448.23 24.96L452.27 34.32L452.27 40.89L458.82 40.89L458.82 34.32L464.93 20.13L458.08 20.13L455.61 26.34L453.13 20.13L441.65 20.13L441.65 33.65Q441.65 33.95 441.6 34.15Q441.56 34.28 441.52 34.34L441.51 34.36L441.49 34.38Q441.39 34.53 441.09 34.64Q440.59 34.81 439.79 34.81Q438.96 34.81 438.44 34.64Q438.16 34.54 438.03 34.36Q437.99 34.29 437.96 34.17Q437.91 33.96 437.91 33.65L437.91 20.13L431.35 20.13L431.35 24.3Q431.29 24.04 431.2 23.81Q430.85 22.82 430.21 22.08Q430.08 21.94 429.94 21.8Q429.9 21.76 429.86 21.72Q428.22 20.13 425.03 20.13ZM431.35 28.17Q431.28 28.44 431.18 28.69Q430.91 29.45 430.44 30.05Q430.66 30.26 430.86 30.5Q431.14 30.82 431.35 31.2L431.35 28.17ZM430.41 32.76C430.25 32.25 430.02 31.82 429.71 31.47C429.59 31.32 429.46 31.18 429.33 31.06C429.14 30.89 428.94 30.75 428.73 30.63C428.37 30.42 428.01 30.27 427.62 30.17C428.13 30.04 428.57 29.81 428.94 29.48C429.04 29.38 429.13 29.29 429.21 29.18C429.45 28.89 429.64 28.55 429.78 28.16Q430.09 27.34 430.09 26.28C430.09 24.8 429.69 23.65 428.87 22.85C428.07 22.04 426.79 21.63 425.03 21.63L418.05 21.63L418.05 39.39L425.34 39.39C426.5 39.39 427.46 39.24 428.25 38.93C429.05 38.61 429.65 38.09 430.05 37.37Q430.67 36.29 430.67 34.49C430.67 33.84 430.58 33.26 430.41 32.76ZM427.02 35.21C427.2 34.88 427.29 34.43 427.29 33.87C427.29 33.4 427.2 33.01 427.02 32.69C426.85 32.37 426.61 32.12 426.3 31.95C426 31.77 425.65 31.68 425.25 31.68L421.6 31.68L421.6 36.2L425.25 36.2Q425.87 36.2 426.33 35.96C426.63 35.8 426.86 35.55 427.02 35.21ZM423.1 34.7L425.25 34.7Q425.5 34.7 425.63 34.63Q425.64 34.62 425.67 34.57L425.68 34.54L425.69 34.52Q425.73 34.46 425.75 34.33Q425.79 34.14 425.79 33.87Q425.79 33.56 425.71 33.41Q425.65 33.3 425.55 33.25Q425.44 33.18 425.25 33.18L423.1 33.18L423.1 34.7ZM436.79 35.21C436.53 34.83 436.41 34.31 436.41 33.65L436.41 21.63L432.85 21.63L432.85 33.67Q432.85 35.45 433.36 36.6C433.71 37.36 434.2 37.95 434.82 38.38C435.46 38.8 436.21 39.09 437.05 39.27C437.9 39.43 438.81 39.51 439.79 39.51C440.78 39.51 441.69 39.43 442.53 39.27C443.37 39.09 444.11 38.8 444.73 38.38C445.36 37.95 445.85 37.36 446.2 36.6C446.55 35.84 446.73 34.86 446.73 33.67L446.73 21.63L443.15 21.63L443.15 33.65Q443.15 34.64 442.74 35.21C442.49 35.59 442.1 35.88 441.59 36.05C441.09 36.23 440.49 36.31 439.79 36.31C439.07 36.31 438.45 36.23 437.94 36.05C437.45 35.88 437.06 35.59 436.79 35.21ZM456.42 28.36L455.62 30.39L454.81 28.36L452.11 21.63L448.42 21.63L449.07 23.13L453.77 34.01L453.77 39.39L457.32 39.39L457.32 34.01L462.01 23.13L462.65 21.63L459.1 21.63L456.42 28.36ZM543.65 21.63L543.65 39.39L547.2 39.39L547.2 21.63L543.65 21.63ZM508.35 30.98L508.77 32.48L504.4 32.48L504.82 30.98L505.81 27.46L506.59 24.67L507.36 27.46L508.35 30.98ZM506.79 30.98L506.59 30.24L506.38 30.98L506.79 30.98ZM425.09 27.45Q425.08 27.45 425.05 27.45L423.1 27.45L423.1 26.32L425.01 26.32Q425.1 26.32 425.15 26.34Q425.16 26.34 425.17 26.35Q425.22 26.53 425.21 26.91Q425.21 27.27 425.09 27.45ZM423.1 24.82L425.01 24.82Q425.45 24.82 425.81 24.99Q426.03 25.1 426.23 25.28C426.55 25.57 426.71 26.07 426.71 26.8C426.71 26.84 426.71 26.87 426.71 26.91Q426.71 27.78 426.29 28.34L426.29 28.34L426.29 28.35Q426.27 28.37 426.25 28.4C425.97 28.76 425.57 28.95 425.05 28.95L421.6 28.95L421.6 24.82L423.1 24.82Z" fill="#FFFFFF" fill-opacity="1.000000" fill-rule="evenodd"/>
		<path id="We buy trAffic" d="M797.18 21.3C801.22 21.3 804.27 23.62 804.76 27.65L801.02 27.65C800.74 25.74 799.28 24.56 797.27 24.56C794.57 24.56 792.79 26.64 792.79 30.27C792.79 34 794.59 35.97 797.24 35.97C799.21 35.97 800.68 34.89 801.02 33.03L804.76 33.05C804.36 36.26 801.66 39.24 797.18 39.24C792.51 39.24 789.05 35.96 789.05 30.27C789.05 24.56 792.57 21.3 797.18 21.3ZM610.89 39L607.29 39L602.3 21.54L606.33 21.54L609.22 33.67L609.37 33.67L612.55 21.54L616.01 21.54L619.19 33.69L619.34 33.69L622.23 21.54L626.26 21.54L621.26 39L617.67 39L614.34 27.58L614.21 27.58L610.89 39ZM640.02 39L628.23 39L628.23 21.54L639.99 21.54L639.99 24.58L631.92 24.58L631.92 28.74L639.38 28.74L639.38 31.78L631.92 31.78L631.92 35.95L640.02 35.95L640.02 39ZM655.95 39L648.5 39L648.49 21.54L655.48 21.54C659.33 21.54 661.28 23.4 661.28 26.02C661.28 28.07 659.94 29.36 658.13 29.77L658.13 29.94C660.11 30.03 661.96 31.59 661.96 34.17C661.96 36.95 659.87 39 655.95 39ZM675.14 32.56L675.14 21.54L678.83 21.54L678.83 32.88C678.83 36.69 675.93 39.24 671.59 39.24C667.24 39.24 664.36 36.69 664.36 32.88L664.36 21.54L668.05 21.54L668.05 32.56C668.05 34.55 669.45 36 671.59 36C673.74 36 675.14 34.55 675.14 32.56ZM687.21 32.83L680.84 21.54L684.97 21.54L688.95 29.06L689.12 29.06L693.1 21.54L697.24 21.54L690.87 32.83L690.87 39L687.21 39L687.21 32.83ZM709.49 24.58L704.14 24.58L704.14 21.54L718.48 21.54L718.48 24.58L713.14 24.58L713.14 39L709.49 39L709.49 24.58ZM724.54 39L720.85 39L720.85 21.54L727.74 21.54C731.7 21.54 734 23.77 734 27.24C734 29.63 732.89 31.36 730.91 32.21L734.62 39L730.54 39L727.23 32.81L724.54 32.81L724.54 39ZM740.9 35.02L739.61 39L735.65 39L741.68 21.54L746.43 21.54L752.45 39L748.5 39L747.2 35.02L740.9 35.02ZM758.24 39L754.55 39L754.55 21.54L766.11 21.54L766.11 24.58L758.24 24.58L758.24 28.74L765.34 28.74L765.34 31.78L758.24 31.78L758.24 39ZM772.28 39L768.59 39L768.59 21.54L780.14 21.54L780.14 24.58L772.28 24.58L772.28 28.74L779.38 28.74L779.38 31.78L772.28 31.78L772.28 39ZM782.63 21.54L786.32 21.54L786.32 39L782.63 39L782.63 21.54ZM652.19 24.52L652.19 28.85L654.92 28.85C656.43 28.85 657.55 28.01 657.55 26.63C657.55 25.37 656.63 24.52 654.99 24.52L652.19 24.52ZM724.54 24.56L724.54 29.84L727.05 29.84C729.16 29.84 730.19 28.97 730.19 27.24C730.19 25.5 729.16 24.56 727.03 24.56L724.54 24.56ZM743.99 25.53L741.84 32.13L746.28 32.13L744.13 25.53L743.99 25.53ZM652.19 31.34L652.19 35.98L655.19 35.98C657.25 35.98 658.15 35.12 658.15 33.8C658.15 32.36 657.05 31.34 655.28 31.34L652.19 31.34Z" fill="#FFFFFF" fill-opacity="1.000000" fill-rule="evenodd"/>
		<path id="We buy trAffic" d="M980.91 21.63L982.48 21.63L987.58 37.89L988.02 39.28L988.05 39.39L984.36 39.39L983.23 35.67L977.18 35.67L976.08 39.39L972.43 39.39L972.69 38.56L972.9 37.89L978 21.63L980.91 21.63ZM979.92 20.13L976.89 20.13L971.75 36.54L970.06 32.9Q970.74 32.42 971.25 31.69Q971.81 30.92 972.12 29.8Q972.42 28.74 972.42 27.31Q972.42 25.32 971.93 23.99Q971.41 22.52 970.43 21.64Q969.97 21.23 969.45 20.94Q968.88 20.62 968.22 20.45Q967.11 20.13 965.85 20.13L941.77 20.13L941.77 26.32L946.64 26.32L946.64 40.89L953.19 40.89L953.19 26.32L957.01 26.32L957.01 40.89L963.56 40.89L963.56 34.29Q963.76 34.29 963.95 34.3L966.81 40.89L977.2 40.89L978.3 37.17L982.12 37.17L983.24 40.89L994.57 40.89L994.57 34.03L1001.61 33.84L1001.6 28.11L994.57 27.92L994.57 26.42L1001.78 26.42L1001.78 40.89L1008.33 40.89L1008.33 34.03L1015.36 33.84L1015.36 28.11L1008.33 27.92L1008.33 26.42L1015.77 26.42L1015.77 40.89L1022.32 40.89L1022.32 35.11Q1022.36 35.3 1022.4 35.47Q1022.91 37.59 1023.98 38.84Q1024.64 39.6 1025.46 40.07Q1026.03 40.41 1026.68 40.61L1026.68 40.61Q1028.1 41.03 1029.88 41.03Q1031.18 41.03 1032.26 40.93Q1033.32 40.85 1034.24 40.7L1034.26 40.69L1034.28 40.69Q1035.21 40.5 1035.94 40.26L1036.97 39.92L1036.97 34.38L1035.27 34.61Q1034.63 34.7 1033.53 34.77Q1032.44 34.84 1030.67 34.84Q1029.86 34.84 1029.38 34.69Q1029.21 34.62 1029.11 34.5Q1029.06 34.46 1029.04 34.41Q1028.79 34.02 1028.65 33.19Q1028.5 32.15 1028.5 30.48Q1028.5 28.76 1028.67 27.76Q1028.75 27.3 1028.87 26.97Q1028.96 26.72 1029.05 26.58Q1029.12 26.49 1029.21 26.42Q1029.3 26.35 1029.42 26.31Q1029.91 26.15 1030.67 26.15Q1031.65 26.15 1032.52 26.22L1032.54 26.22L1032.56 26.22Q1033.43 26.27 1034.1 26.35Q1034.78 26.44 1035.15 26.52L1036.97 26.93L1036.97 21.26L1036 20.89Q1035.31 20.64 1034.37 20.45Q1033.46 20.24 1032.35 20.11Q1031.22 19.96 1029.93 19.96Q1028.18 19.96 1026.76 20.41Q1026 20.66 1025.36 21.07Q1024.63 21.54 1024.05 22.22Q1022.97 23.45 1022.42 25.59Q1022.37 25.8 1022.32 26.03L1022.32 20.13L1015.77 20.13L1015.77 20.51L1015.17 20.45Q1013.79 20.3 1012.28 20.22Q1010.8 20.15 1009.49 20.15L1007.33 20.13Q1006.44 20.13 1005.53 20.37Q1005.08 20.49 1004.67 20.68Q1004.15 20.92 1003.69 21.27Q1003.6 21.35 1003.5 21.42Q1003.08 21.78 1002.76 22.24L1002.76 20.59L1001.42 20.45Q1000.03 20.3 998.52 20.22Q997.04 20.15 995.73 20.15L993.57 20.13Q992.68 20.13 991.77 20.37Q991.32 20.49 990.91 20.68Q990.39 20.92 989.93 21.27Q989.83 21.35 989.74 21.42Q988.97 22.08 988.51 23.09Q988.02 24.18 988.02 25.68L988.02 34.26L983.59 20.13L980.49 20.13L980.2 19.11L979.92 20.13ZM989.52 39.05L989.52 39.39L993.07 39.39L993.07 32.57L1000.1 32.38L1000.1 29.57L993.07 29.38L993.07 26.36C993.07 25.92 993.19 25.58 993.43 25.32C993.68 25.05 994.06 24.92 994.56 24.92L1001.26 24.92L1001.26 21.94C1000.36 21.84 999.42 21.77 998.44 21.72Q997 21.65 995.71 21.65C994.86 21.64 994.15 21.63 993.57 21.63Q992.88 21.63 992.16 21.82C991.68 21.95 991.24 22.16 990.84 22.47C990.44 22.77 990.12 23.19 989.88 23.72C989.64 24.24 989.52 24.9 989.52 25.68L989.52 39.05ZM1032.16 21.6Q1031.13 21.46 1029.93 21.46C1028.92 21.46 1028.02 21.59 1027.22 21.84C1026.42 22.1 1025.74 22.55 1025.18 23.21C1024.62 23.85 1024.18 24.76 1023.88 25.95Q1023.45 27.7 1023.45 30.46Q1023.45 33.31 1023.86 35.12Q1024.29 36.89 1025.1 37.85C1025.66 38.49 1026.34 38.93 1027.12 39.17C1027.92 39.41 1028.84 39.53 1029.88 39.53C1030.71 39.53 1031.46 39.5 1032.14 39.43C1032.81 39.39 1033.42 39.31 1033.98 39.22C1034.54 39.11 1035.04 38.98 1035.47 38.84L1035.47 36.1C1035.07 36.15 1034.57 36.2 1033.97 36.24C1033.86 36.25 1033.74 36.26 1033.62 36.27C1032.87 36.31 1031.89 36.34 1030.67 36.34C1029.94 36.34 1029.35 36.26 1028.87 36.1C1028.41 35.92 1028.04 35.63 1027.77 35.21C1027.5 34.78 1027.3 34.18 1027.17 33.41C1027.06 32.64 1027 31.67 1027 30.48C1027 29.25 1027.06 28.25 1027.18 27.48C1027.34 26.72 1027.54 26.13 1027.81 25.73C1028.1 25.31 1028.48 25.04 1028.93 24.89C1029.42 24.73 1030 24.65 1030.67 24.65C1031.36 24.65 1032.02 24.67 1032.64 24.72C1033.13 24.75 1033.56 24.78 1033.97 24.83C1034.07 24.84 1034.18 24.85 1034.3 24.87C1034.79 24.93 1035.18 25 1035.47 25.06L1035.47 22.3Q1034.9 22.08 1034.06 21.92C1033.5 21.79 1032.86 21.68 1032.16 21.6ZM1006.83 29.38L1006.83 26.36C1006.83 25.92 1006.95 25.58 1007.19 25.32C1007.45 25.05 1007.82 24.92 1008.32 24.92L1015.01 24.92L1015.01 21.94C1014.12 21.84 1013.18 21.77 1012.21 21.72Q1010.77 21.65 1009.47 21.65C1008.62 21.64 1007.91 21.63 1007.33 21.63Q1006.64 21.63 1005.92 21.82C1005.44 21.95 1005 22.16 1004.6 22.47C1004.2 22.77 1003.88 23.19 1003.64 23.72C1003.4 24.24 1003.28 24.9 1003.28 25.68L1003.28 39.39L1006.83 39.39L1006.83 32.57L1013.86 32.38L1013.86 29.57L1006.83 29.38ZM970.72 37.89L968.74 33.62L968.11 32.26C968.27 32.19 968.42 32.12 968.58 32.04C968.77 31.94 968.95 31.83 969.14 31.71C969.48 31.48 969.77 31.19 970.03 30.82C970.3 30.45 970.52 29.98 970.68 29.4C970.84 28.83 970.92 28.13 970.92 27.31C970.92 26.16 970.78 25.22 970.51 24.48C970.25 23.75 969.89 23.17 969.43 22.76C968.96 22.34 968.43 22.05 967.82 21.89C967.21 21.72 966.56 21.63 965.85 21.63L958.51 21.63L958.51 39.39L962.06 39.39L962.06 32.76C962.27 32.78 962.5 32.79 962.76 32.79L963.52 32.79L963.56 32.79C963.8 32.79 964.04 32.8 964.27 32.81L964.94 32.81L967.8 39.39L971.42 39.39L971.08 38.66L970.72 37.89ZM966.09 24.94C965.84 24.86 965.55 24.82 965.23 24.82L962.06 24.82L962.06 29.96L965.23 29.96C965.55 29.96 965.84 29.92 966.09 29.84Q966.26 29.78 966.42 29.69Q966.61 29.59 966.76 29.43C966.96 29.22 967.1 28.95 967.2 28.61Q967.36 28.11 967.36 27.31Q967.36 26.57 967.2 26.09C967.1 25.76 966.96 25.5 966.76 25.32Q966.59 25.15 966.38 25.05L966.38 25.05Q966.25 24.98 966.09 24.94ZM963.56 28.46L965.23 28.46Q965.48 28.46 965.65 28.4Q965.66 28.4 965.68 28.39Q965.72 28.33 965.75 28.2L965.76 28.17L965.77 28.14Q965.86 27.86 965.86 27.31Q965.86 26.83 965.78 26.59L965.77 26.55L965.75 26.5Q965.73 26.43 965.72 26.4L965.71 26.39L965.69 26.38L965.65 26.37Q965.48 26.32 965.23 26.32L963.56 26.32L963.56 28.46ZM953.19 24.82L956.59 24.82L956.59 21.63L943.27 21.63L943.27 24.82L948.14 24.82L948.14 39.39L951.69 39.39L951.69 24.82L953.19 24.82ZM851.72 20.13L844.95 20.13L849.91 40.89L855.85 40.89L858.34 32.27L860.82 40.89L866.75 40.89L869.66 28.75L869.66 35.59Q869.66 37.35 870.27 38.47L870.29 38.5L870.3 38.52Q870.82 39.4 871.58 39.95Q871.78 40.1 871.99 40.22Q872.75 40.64 873.56 40.81Q873.75 40.85 873.94 40.87Q874.79 41.01 875.48 41.01Q876.68 41.01 878 40.96Q879.34 40.91 880.62 40.84Q881.96 40.76 883.06 40.64L884.39 40.49L884.39 34.67L876.21 34.67Q876.21 34.63 876.21 34.59L876.21 33.6L883.24 33.41L883.24 27.68L876.21 27.49L876.21 26.42Q876.24 26.42 876.27 26.42L884.39 26.42L884.39 20.59L883.05 20.45Q882.09 20.35 880.97 20.3Q879.85 20.22 878.43 20.18Q877.04 20.13 875.21 20.13Q874.32 20.13 873.41 20.37Q872.96 20.49 872.55 20.68Q872.03 20.92 871.57 21.27Q871.49 21.33 871.41 21.4L871.72 20.13L864.95 20.13L863.18 27.88L861.13 20.13L855.56 20.13L853.49 27.9L851.72 20.13ZM854.21 31.04L853.38 34.16L852.66 31.01L850.52 21.63L846.85 21.63L847.21 23.13L851.1 39.39L854.72 39.39L857.56 29.57L858.35 26.86L859.12 29.57L861.95 39.39L865.57 39.39L869.82 21.63L866.15 21.63L864.01 31L863.29 34.16L862.46 31.03L859.98 21.63L856.71 21.63L854.21 31.04ZM874.71 28.95L874.71 26.38Q874.71 25.7 875.05 25.34L875.05 25.34Q875.08 25.31 875.12 25.28C875.39 25.04 875.77 24.92 876.27 24.92L882.89 24.92L882.89 21.94C882.28 21.88 881.61 21.83 880.88 21.8Q879.77 21.72 878.38 21.67C877.47 21.64 876.41 21.63 875.21 21.63Q874.52 21.63 873.8 21.82C873.32 21.95 872.88 22.16 872.48 22.47C872.08 22.77 871.76 23.19 871.52 23.72C871.28 24.24 871.16 24.9 871.16 25.68L871.16 35.59Q871.16 36.96 871.59 37.75C871.89 38.27 872.27 38.65 872.72 38.91C873.18 39.16 873.66 39.32 874.16 39.39C874.65 39.47 875.09 39.51 875.48 39.51C876.26 39.51 877.09 39.49 877.95 39.46C878.83 39.43 879.69 39.39 880.54 39.34C881.41 39.29 882.19 39.23 882.89 39.15L882.89 36.17L876.2 36.17C875.94 36.17 875.69 36.13 875.45 36.05C875.23 35.96 875.05 35.8 874.9 35.57C874.77 35.33 874.71 35 874.71 34.59L874.71 32.14L881.74 31.95L881.74 29.14L874.71 28.95ZM898.65 20.13L890.16 20.13L890.17 40.89L898.96 40.89Q900.97 40.89 902.42 40.32Q903.26 39.99 903.9 39.43Q904.24 39.14 904.52 38.79Q904.77 38.48 904.96 38.12Q905.28 37.57 905.48 36.9Q905.54 37.06 905.6 37.2L905.61 37.22L905.62 37.24Q906.14 38.35 906.97 39.12Q907.26 39.39 907.59 39.61L907.6 39.62L907.62 39.64Q908.82 40.41 910.37 40.74L910.39 40.74Q911.8 41.01 913.41 41.01Q915.04 41.01 916.45 40.74Q918.01 40.41 919.21 39.61Q919.5 39.41 919.76 39.17Q920.64 38.38 921.18 37.23Q921.84 35.78 921.84 33.67L921.84 24.96L925.89 34.32L925.89 40.89L932.44 40.89L932.44 34.32L938.55 20.13L931.7 20.13L929.23 26.34L926.75 20.13L915.27 20.13L915.27 33.65Q915.27 33.95 915.21 34.15Q915.18 34.28 915.14 34.34L915.12 34.36L915.11 34.38Q915.01 34.53 914.71 34.64Q914.21 34.81 913.41 34.81Q912.58 34.81 912.06 34.64Q911.78 34.54 911.65 34.36Q911.61 34.29 911.58 34.17Q911.52 33.96 911.52 33.65L911.52 20.13L904.97 20.13L904.97 24.3Q904.9 24.04 904.82 23.81Q904.47 22.82 903.83 22.08Q903.7 21.94 903.56 21.8Q903.52 21.76 903.48 21.72Q901.84 20.13 898.65 20.13ZM904.97 28.17Q904.9 28.44 904.8 28.69Q904.53 29.45 904.06 30.05Q904.28 30.26 904.48 30.5Q904.75 30.82 904.97 31.2L904.97 28.17ZM904.02 32.76C903.86 32.25 903.63 31.82 903.33 31.47C903.21 31.32 903.08 31.18 902.94 31.06C902.76 30.89 902.56 30.75 902.34 30.63C901.99 30.42 901.62 30.27 901.24 30.17C901.75 30.04 902.19 29.81 902.56 29.48C902.66 29.38 902.75 29.29 902.83 29.18C903.07 28.89 903.26 28.55 903.4 28.16Q903.71 27.34 903.71 26.28C903.71 24.8 903.3 23.65 902.49 22.85C901.69 22.04 900.41 21.63 898.65 21.63L891.66 21.63L891.67 39.39L898.96 39.39C900.11 39.39 901.08 39.24 901.87 38.93C902.67 38.61 903.27 38.09 903.67 37.37Q904.29 36.29 904.29 34.49C904.29 33.84 904.2 33.26 904.02 32.76ZM900.64 35.21C900.82 34.88 900.9 34.43 900.9 33.87C900.9 33.4 900.82 33.01 900.64 32.69C900.46 32.37 900.22 32.12 899.92 31.95C899.62 31.77 899.26 31.68 898.86 31.68L895.22 31.68L895.22 36.2L898.87 36.2Q899.49 36.2 899.95 35.96C900.25 35.8 900.48 35.55 900.64 35.21ZM896.72 34.7L898.87 34.7Q899.12 34.7 899.25 34.63Q899.26 34.62 899.29 34.57L899.3 34.54L899.31 34.52Q899.34 34.46 899.37 34.33Q899.4 34.14 899.4 33.87Q899.4 33.56 899.33 33.41Q899.26 33.3 899.17 33.25Q899.06 33.18 898.87 33.18L896.72 33.18L896.72 34.7ZM910.41 35.21C910.15 34.83 910.02 34.31 910.02 33.65L910.02 21.63L906.47 21.63L906.47 33.67Q906.47 35.45 906.98 36.6C907.33 37.36 907.82 37.95 908.44 38.38C909.08 38.8 909.82 39.09 910.67 39.27C911.52 39.43 912.43 39.51 913.41 39.51C914.4 39.51 915.31 39.43 916.14 39.27C916.99 39.09 917.73 38.8 918.35 38.38C918.98 37.95 919.46 37.36 919.82 36.6C920.17 35.84 920.34 34.86 920.34 33.67L920.34 21.63L916.77 21.63L916.77 33.65Q916.77 34.64 916.36 35.21C916.1 35.59 915.72 35.88 915.21 36.05C914.71 36.23 914.11 36.31 913.41 36.31C912.69 36.31 912.07 36.23 911.56 36.05C911.06 35.88 910.68 35.59 910.41 35.21ZM930.04 28.36L929.24 30.39L928.43 28.36L925.73 21.63L922.04 21.63L922.69 23.13L927.39 34.01L927.39 39.39L930.94 39.39L930.94 34.01L935.62 23.13L936.27 21.63L932.72 21.63L930.04 28.36ZM1017.27 21.63L1017.27 39.39L1020.82 39.39L1020.82 21.63L1017.27 21.63ZM981.97 30.98L982.39 32.48L978.02 32.48L978.44 30.98L979.42 27.46L980.2 24.67L980.98 27.46L981.97 30.98ZM980.41 30.98L980.2 30.24L980 30.98L980.41 30.98ZM898.71 27.45Q898.69 27.45 898.67 27.45L896.72 27.45L896.72 26.32L898.62 26.32Q898.71 26.32 898.77 26.34Q898.78 26.34 898.79 26.35Q898.84 26.53 898.83 26.91Q898.83 27.27 898.71 27.45ZM896.72 24.82L898.62 24.82Q899.06 24.82 899.42 24.99Q899.65 25.1 899.85 25.28C900.17 25.57 900.33 26.07 900.33 26.8C900.33 26.84 900.33 26.87 900.33 26.91Q900.33 27.78 899.91 28.34L899.91 28.34L899.91 28.35Q899.89 28.37 899.87 28.4C899.58 28.76 899.18 28.95 898.67 28.95L895.22 28.95L895.22 24.82L896.72 24.82Z" fill="#FFFFFF" fill-opacity="1.000000" fill-rule="evenodd"/>
		<path id="We buy trAffic" d="M1270.8 21.3C1274.85 21.3 1277.89 23.62 1278.38 27.65L1274.65 27.65C1274.37 25.74 1272.91 24.56 1270.89 24.56C1268.18 24.56 1266.41 26.64 1266.41 30.27C1266.41 34 1268.21 35.97 1270.86 35.97C1272.82 35.97 1274.3 34.89 1274.65 33.03L1278.38 33.05C1277.98 36.26 1275.28 39.24 1270.8 39.24C1266.13 39.24 1262.68 35.96 1262.68 30.27C1262.68 24.56 1266.18 21.3 1270.8 21.3ZM1084.51 39L1080.92 39L1075.92 21.54L1079.94 21.54L1082.84 33.67L1082.99 33.67L1086.18 21.54L1089.63 21.54L1092.81 33.69L1092.96 33.69L1095.85 21.54L1099.88 21.54L1094.88 39L1091.29 39L1087.96 27.58L1087.82 27.58L1084.51 39ZM1113.65 39L1101.85 39L1101.85 21.54L1113.61 21.54L1113.61 24.58L1105.54 24.58L1105.54 28.74L1113.01 28.74L1113.01 31.78L1105.54 31.78L1105.54 35.95L1113.65 35.95L1113.65 39ZM1129.57 39L1122.12 39L1122.12 21.54L1129.11 21.54C1132.96 21.54 1134.9 23.4 1134.9 26.02C1134.9 28.07 1133.56 29.36 1131.75 29.77L1131.75 29.94C1133.73 30.03 1135.57 31.59 1135.57 34.17C1135.57 36.95 1133.5 39 1129.57 39ZM1148.76 32.56L1148.76 21.54L1152.44 21.54L1152.44 32.88C1152.44 36.69 1149.55 39.24 1145.21 39.24C1140.86 39.24 1137.98 36.69 1137.98 32.88L1137.98 21.54L1141.67 21.54L1141.67 32.56C1141.67 34.55 1143.07 36 1145.21 36C1147.36 36 1148.76 34.55 1148.76 32.56ZM1160.82 32.83L1154.46 21.54L1158.59 21.54L1162.56 29.06L1162.74 29.06L1166.72 21.54L1170.86 21.54L1164.49 32.83L1164.49 39L1160.82 39L1160.82 32.83ZM1183.11 24.58L1177.77 24.58L1177.77 21.54L1192.11 21.54L1192.11 24.58L1186.76 24.58L1186.76 39L1183.11 39L1183.11 24.58ZM1198.17 39L1194.48 39L1194.47 21.54L1201.36 21.54C1205.32 21.54 1207.62 23.77 1207.62 27.24C1207.62 29.63 1206.52 31.36 1204.53 32.21L1208.24 39L1204.17 39L1200.86 32.81L1198.17 32.81L1198.17 39ZM1214.53 35.02L1213.23 39L1209.28 39L1215.31 21.54L1220.06 21.54L1226.06 39L1222.12 39L1220.81 35.02L1214.53 35.02ZM1231.87 39L1228.17 39L1228.17 21.54L1239.73 21.54L1239.73 24.58L1231.87 24.58L1231.87 28.74L1238.96 28.74L1238.96 31.78L1231.87 31.78L1231.87 39ZM1245.9 39L1242.21 39L1242.21 21.54L1253.77 21.54L1253.77 24.58L1245.9 24.58L1245.9 28.74L1253 28.74L1253 31.78L1245.9 31.78L1245.9 39ZM1256.25 21.54L1259.93 21.54L1259.93 39L1256.25 39L1256.25 21.54ZM1125.81 24.52L1125.81 28.85L1128.54 28.85C1130.05 28.85 1131.18 28.01 1131.18 26.63C1131.18 25.37 1130.25 24.52 1128.61 24.52L1125.81 24.52ZM1198.17 24.56L1198.17 29.84L1200.67 29.84C1202.78 29.84 1203.81 28.97 1203.81 27.24C1203.81 25.5 1202.78 24.56 1200.65 24.56L1198.17 24.56ZM1217.61 25.53L1215.46 32.13L1219.9 32.13L1217.75 25.53L1217.61 25.53ZM1125.81 31.34L1125.81 35.98L1128.81 35.98C1130.88 35.98 1131.77 35.12 1131.77 33.8C1131.77 32.36 1130.67 31.34 1128.9 31.34L1125.81 31.34Z" fill="#FFFFFF" fill-opacity="1.000000" fill-rule="evenodd"/>
		<path id="We buy trAffic" d="M1454.53 21.63L1456.11 21.63L1461.2 37.89L1461.64 39.28L1461.67 39.39L1457.98 39.39L1456.85 35.67L1450.8 35.67L1449.7 39.39L1446.05 39.39L1446.31 38.56L1446.52 37.89L1451.62 21.63L1454.53 21.63ZM1453.54 20.13L1450.52 20.13L1445.37 36.54L1443.68 32.9Q1444.36 32.42 1444.87 31.69Q1445.43 30.92 1445.74 29.8Q1446.04 28.74 1446.04 27.31Q1446.04 25.32 1445.55 23.99Q1445.04 22.52 1444.05 21.64Q1443.6 21.23 1443.08 20.94Q1442.5 20.62 1441.84 20.45Q1440.73 20.13 1439.48 20.13L1415.39 20.13L1415.39 26.32L1420.27 26.32L1420.27 40.89L1426.82 40.89L1426.82 26.32L1430.63 26.32L1430.63 40.89L1437.18 40.89L1437.18 34.29Q1437.38 34.29 1437.57 34.3L1440.44 40.89L1450.82 40.89L1451.92 37.17L1455.74 37.17L1456.87 40.89L1468.19 40.89L1468.19 34.03L1475.22 33.84L1475.22 28.11L1468.19 27.92L1468.19 26.42L1475.4 26.42L1475.4 40.89L1481.95 40.89L1481.95 34.03L1488.98 33.84L1488.98 28.11L1481.95 27.92L1481.95 26.42L1489.39 26.42L1489.39 40.89L1495.94 40.89L1495.94 35.11Q1495.98 35.3 1496.02 35.47Q1496.53 37.59 1497.59 38.84Q1498.26 39.6 1499.08 40.07Q1499.65 40.41 1500.3 40.61L1500.31 40.61Q1501.72 41.03 1503.5 41.03Q1504.81 41.03 1505.88 40.93Q1506.95 40.85 1507.86 40.7L1507.88 40.69L1507.9 40.69Q1508.83 40.5 1509.56 40.26L1510.59 39.92L1510.59 34.38L1508.89 34.61Q1508.24 34.7 1507.15 34.77Q1506.07 34.84 1504.29 34.84Q1503.48 34.84 1503 34.69Q1502.83 34.62 1502.72 34.5Q1502.69 34.46 1502.66 34.41Q1502.41 34.02 1502.27 33.19Q1502.12 32.15 1502.12 30.48Q1502.12 28.76 1502.28 27.76Q1502.37 27.3 1502.49 26.97Q1502.58 26.72 1502.67 26.58Q1502.73 26.49 1502.82 26.42Q1502.92 26.35 1503.04 26.31Q1503.53 26.15 1504.29 26.15Q1505.26 26.15 1506.14 26.22L1506.16 26.22L1506.18 26.22Q1507.06 26.27 1507.72 26.35Q1508.4 26.44 1508.76 26.52L1510.59 26.93L1510.59 21.26L1509.62 20.89Q1508.93 20.64 1507.99 20.45Q1507.08 20.24 1505.97 20.11Q1504.84 19.96 1503.55 19.96Q1501.8 19.96 1500.38 20.41Q1499.62 20.66 1498.98 21.07Q1498.25 21.54 1497.67 22.22Q1496.59 23.45 1496.04 25.59Q1495.99 25.8 1495.94 26.03L1495.94 20.13L1489.39 20.13L1489.39 20.51L1488.79 20.45Q1487.41 20.3 1485.9 20.22Q1484.42 20.15 1483.11 20.15L1480.95 20.13Q1480.06 20.13 1479.15 20.37Q1478.7 20.49 1478.29 20.68Q1477.77 20.92 1477.31 21.27Q1477.21 21.35 1477.12 21.42Q1476.7 21.78 1476.38 22.24L1476.38 20.59L1475.03 20.45Q1473.65 20.3 1472.14 20.22Q1470.66 20.15 1469.35 20.15L1467.2 20.13Q1466.3 20.13 1465.39 20.37Q1464.94 20.49 1464.53 20.68Q1464.01 20.92 1463.55 21.27Q1463.46 21.35 1463.36 21.42Q1462.6 22.08 1462.13 23.09Q1461.64 24.18 1461.64 25.68L1461.64 34.26L1457.21 20.13L1454.11 20.13L1453.83 19.11L1453.54 20.13ZM1463.14 39.05L1463.14 39.39L1466.69 39.39L1466.69 32.57L1473.72 32.38L1473.72 29.57L1466.69 29.38L1466.69 26.36C1466.69 25.92 1466.81 25.58 1467.05 25.32C1467.31 25.05 1467.68 24.92 1468.18 24.92L1474.88 24.92L1474.88 21.94C1473.98 21.84 1473.04 21.77 1472.07 21.72Q1470.63 21.65 1469.33 21.65C1468.48 21.64 1467.77 21.63 1467.2 21.63Q1466.5 21.63 1465.78 21.82C1465.3 21.95 1464.86 22.16 1464.46 22.47C1464.06 22.77 1463.74 23.19 1463.5 23.72C1463.26 24.24 1463.14 24.9 1463.14 25.68L1463.14 39.05ZM1505.78 21.6Q1504.75 21.46 1503.55 21.46C1502.54 21.46 1501.63 21.59 1500.83 21.84C1500.03 22.1 1499.35 22.55 1498.79 23.21C1498.23 23.85 1497.8 24.76 1497.5 25.95Q1497.07 27.7 1497.07 30.46Q1497.07 33.31 1497.47 35.12Q1497.91 36.89 1498.72 37.85C1499.28 38.49 1499.95 38.93 1500.74 39.17C1501.54 39.41 1502.46 39.53 1503.5 39.53C1504.33 39.53 1505.08 39.5 1505.75 39.43C1506.43 39.39 1507.04 39.31 1507.6 39.22C1508.16 39.11 1508.66 38.98 1509.09 38.84L1509.09 36.1C1508.7 36.15 1508.2 36.2 1507.59 36.24C1507.48 36.25 1507.36 36.26 1507.24 36.27C1506.49 36.31 1505.51 36.34 1504.29 36.34C1503.57 36.34 1502.97 36.26 1502.49 36.1C1502.03 35.92 1501.66 35.63 1501.39 35.21C1501.11 34.78 1500.91 34.18 1500.79 33.41C1500.67 32.64 1500.62 31.67 1500.62 30.48C1500.62 29.25 1500.68 28.25 1500.81 27.48C1500.95 26.72 1501.16 26.13 1501.43 25.73C1501.72 25.31 1502.1 25.04 1502.56 24.89C1503.04 24.73 1503.62 24.65 1504.29 24.65C1504.98 24.65 1505.63 24.67 1506.26 24.72C1506.75 24.75 1507.19 24.78 1507.59 24.83C1507.7 24.84 1507.81 24.85 1507.91 24.87C1508.41 24.93 1508.8 25 1509.09 25.06L1509.09 22.3Q1508.51 22.08 1507.67 21.92C1507.11 21.79 1506.48 21.68 1505.78 21.6ZM1480.45 29.38L1480.45 26.36C1480.45 25.92 1480.57 25.58 1480.81 25.32C1481.06 25.05 1481.44 24.92 1481.94 24.92L1488.63 24.92L1488.63 21.94C1487.74 21.84 1486.8 21.77 1485.82 21.72Q1484.38 21.65 1483.09 21.65C1482.24 21.64 1481.53 21.63 1480.95 21.63Q1480.26 21.63 1479.54 21.82C1479.06 21.95 1478.62 22.16 1478.22 22.47C1477.82 22.77 1477.5 23.19 1477.26 23.72C1477.02 24.24 1476.9 24.9 1476.9 25.68L1476.9 39.39L1480.45 39.39L1480.45 32.57L1487.48 32.38L1487.48 29.57L1480.45 29.38ZM1444.35 37.89L1442.36 33.62L1441.73 32.26C1441.89 32.19 1442.04 32.12 1442.2 32.04C1442.39 31.94 1442.58 31.83 1442.76 31.71C1443.1 31.48 1443.4 31.19 1443.65 30.82C1443.92 30.45 1444.14 29.98 1444.3 29.4C1444.46 28.83 1444.54 28.13 1444.54 27.31C1444.54 26.16 1444.4 25.22 1444.13 24.48C1443.88 23.75 1443.52 23.17 1443.05 22.76C1442.59 22.34 1442.05 22.05 1441.44 21.89C1440.84 21.72 1440.18 21.63 1439.48 21.63L1432.13 21.63L1432.13 39.39L1435.68 39.39L1435.68 32.76C1435.89 32.78 1436.12 32.79 1436.38 32.79L1437.15 32.79L1437.18 32.79C1437.43 32.79 1437.66 32.8 1437.89 32.81L1438.56 32.81L1441.42 39.39L1445.04 39.39L1444.71 38.66L1444.35 37.89ZM1439.72 24.94C1439.46 24.86 1439.17 24.82 1438.85 24.82L1435.68 24.82L1435.68 29.96L1438.85 29.96C1439.17 29.96 1439.46 29.92 1439.72 29.84Q1439.89 29.78 1440.04 29.69Q1440.23 29.59 1440.39 29.43C1440.58 29.22 1440.72 28.95 1440.82 28.61Q1440.99 28.11 1440.99 27.31Q1440.99 26.57 1440.82 26.09C1440.72 25.76 1440.58 25.5 1440.39 25.32Q1440.21 25.15 1440.01 25.05L1440.01 25.05Q1439.87 24.98 1439.72 24.94ZM1437.18 28.46L1438.85 28.46Q1439.1 28.46 1439.27 28.4Q1439.29 28.4 1439.3 28.39Q1439.34 28.33 1439.38 28.2L1439.39 28.17L1439.4 28.14Q1439.49 27.86 1439.49 27.31Q1439.49 26.83 1439.4 26.59L1439.39 26.55L1439.38 26.5Q1439.36 26.43 1439.34 26.4L1439.33 26.39L1439.31 26.38L1439.27 26.37Q1439.1 26.32 1438.85 26.32L1437.18 26.32L1437.18 28.46ZM1426.82 24.82L1430.21 24.82L1430.21 21.63L1416.89 21.63L1416.89 24.82L1421.77 24.82L1421.77 39.39L1425.32 39.39L1425.32 24.82L1426.82 24.82ZM1325.34 20.13L1318.57 20.13L1323.54 40.89L1329.47 40.89L1331.96 32.27L1334.44 40.89L1340.38 40.89L1343.28 28.75L1343.28 35.59Q1343.28 37.35 1343.9 38.47L1343.91 38.5L1343.92 38.52Q1344.44 39.4 1345.2 39.95Q1345.4 40.1 1345.62 40.22Q1346.37 40.64 1347.18 40.81Q1347.37 40.85 1347.56 40.87Q1348.41 41.01 1349.1 41.01Q1350.3 41.01 1351.63 40.96Q1352.96 40.91 1354.25 40.84Q1355.59 40.76 1356.69 40.64L1358.02 40.49L1358.02 34.67L1349.83 34.67Q1349.83 34.63 1349.83 34.59L1349.83 33.6L1356.86 33.41L1356.86 27.68L1349.83 27.49L1349.83 26.42Q1349.86 26.42 1349.89 26.42L1358.02 26.42L1358.02 20.59L1356.67 20.45Q1355.71 20.35 1354.6 20.3Q1353.47 20.22 1352.06 20.18Q1350.66 20.13 1348.84 20.13Q1347.94 20.13 1347.03 20.37Q1346.58 20.49 1346.17 20.68Q1345.66 20.92 1345.19 21.27Q1345.11 21.33 1345.04 21.4L1345.34 20.13L1338.57 20.13L1336.8 27.88L1334.76 20.13L1329.18 20.13L1327.11 27.9L1325.34 20.13ZM1327.83 31.04L1327 34.16L1326.28 31.01L1324.14 21.63L1320.47 21.63L1320.83 23.13L1324.72 39.39L1328.34 39.39L1331.19 29.57L1331.97 26.86L1332.75 29.57L1335.57 39.39L1339.19 39.39L1343.44 21.63L1339.77 21.63L1337.63 31L1336.91 34.16L1336.09 31.03L1333.6 21.63L1330.34 21.63L1327.83 31.04ZM1348.33 28.95L1348.33 26.38Q1348.33 25.7 1348.67 25.34L1348.67 25.34Q1348.7 25.31 1348.74 25.28C1349.01 25.04 1349.4 24.92 1349.89 24.92L1356.52 24.92L1356.52 21.94C1355.91 21.88 1355.24 21.83 1354.5 21.8Q1353.4 21.72 1352 21.67C1351.09 21.64 1350.04 21.63 1348.84 21.63Q1348.14 21.63 1347.42 21.82C1346.94 21.95 1346.5 22.16 1346.1 22.47C1345.7 22.77 1345.38 23.19 1345.14 23.72C1344.9 24.24 1344.78 24.9 1344.78 25.68L1344.78 35.59Q1344.78 36.96 1345.21 37.75C1345.52 38.27 1345.89 38.65 1346.34 38.91C1346.8 39.16 1347.28 39.32 1347.78 39.39C1348.28 39.47 1348.72 39.51 1349.1 39.51C1349.88 39.51 1350.71 39.49 1351.57 39.46C1352.45 39.43 1353.32 39.39 1354.16 39.34C1355.03 39.29 1355.81 39.23 1356.52 39.15L1356.52 36.17L1349.82 36.17C1349.56 36.17 1349.32 36.13 1349.08 36.05C1348.85 35.96 1348.67 35.8 1348.52 35.57C1348.4 35.33 1348.33 35 1348.33 34.59L1348.33 32.14L1355.36 31.95L1355.36 29.14L1348.33 28.95ZM1372.27 20.13L1363.79 20.13L1363.79 40.89L1372.58 40.89Q1374.59 40.89 1376.04 40.32Q1376.88 39.99 1377.52 39.43Q1377.86 39.14 1378.14 38.79Q1378.39 38.48 1378.59 38.12Q1378.91 37.57 1379.1 36.9Q1379.16 37.06 1379.22 37.2L1379.23 37.22L1379.24 37.24Q1379.76 38.35 1380.59 39.12Q1380.88 39.39 1381.21 39.61L1381.23 39.62L1381.25 39.64Q1382.44 40.41 1383.99 40.74L1384.02 40.74Q1385.43 41.01 1387.03 41.01Q1388.66 41.01 1390.07 40.74Q1391.63 40.41 1392.83 39.61Q1393.12 39.41 1393.39 39.17Q1394.26 38.38 1394.8 37.23Q1395.47 35.78 1395.47 33.67L1395.47 24.96L1399.51 34.32L1399.51 40.89L1406.06 40.89L1406.06 34.32L1412.17 20.13L1405.32 20.13L1402.85 26.34L1400.37 20.13L1388.89 20.13L1388.89 33.65Q1388.89 33.95 1388.84 34.15Q1388.8 34.28 1388.76 34.34L1388.75 34.36L1388.73 34.38Q1388.63 34.53 1388.33 34.64Q1387.83 34.81 1387.03 34.81Q1386.2 34.81 1385.68 34.64Q1385.4 34.54 1385.27 34.36Q1385.23 34.29 1385.2 34.17Q1385.15 33.96 1385.15 33.65L1385.15 20.13L1378.59 20.13L1378.59 24.3Q1378.53 24.04 1378.44 23.81Q1378.09 22.82 1377.45 22.08Q1377.32 21.94 1377.18 21.8Q1377.14 21.76 1377.1 21.72Q1375.46 20.13 1372.27 20.13ZM1378.59 28.17Q1378.52 28.44 1378.42 28.69Q1378.15 29.45 1377.68 30.05Q1377.9 30.26 1378.1 30.5Q1378.38 30.82 1378.59 31.2L1378.59 28.17ZM1377.65 32.76C1377.49 32.25 1377.26 31.82 1376.95 31.47C1376.83 31.32 1376.7 31.18 1376.57 31.06C1376.38 30.89 1376.18 30.75 1375.97 30.63C1375.62 30.42 1375.25 30.27 1374.86 30.17C1375.38 30.04 1375.82 29.81 1376.18 29.48C1376.28 29.38 1376.37 29.29 1376.45 29.18C1376.69 28.89 1376.88 28.55 1377.02 28.16Q1377.34 27.34 1377.34 26.28C1377.34 24.8 1376.93 23.65 1376.11 22.85C1375.31 22.04 1374.03 21.63 1372.27 21.63L1365.29 21.63L1365.29 39.39L1372.58 39.39C1373.74 39.39 1374.7 39.24 1375.49 38.93C1376.29 38.61 1376.89 38.09 1377.29 37.37Q1377.91 36.29 1377.91 34.49C1377.91 33.84 1377.82 33.26 1377.65 32.76ZM1374.26 35.21C1374.44 34.88 1374.53 34.43 1374.53 33.87C1374.53 33.4 1374.44 33.01 1374.26 32.69C1374.09 32.37 1373.85 32.12 1373.54 31.95C1373.24 31.77 1372.89 31.68 1372.49 31.68L1368.84 31.68L1368.84 36.2L1372.49 36.2Q1373.11 36.2 1373.57 35.96C1373.87 35.8 1374.1 35.55 1374.26 35.21ZM1370.34 34.7L1372.49 34.7Q1372.74 34.7 1372.87 34.63Q1372.88 34.62 1372.91 34.57L1372.92 34.54L1372.94 34.52Q1372.97 34.46 1372.99 34.33Q1373.03 34.14 1373.03 33.87Q1373.03 33.56 1372.95 33.41Q1372.89 33.3 1372.79 33.25Q1372.68 33.18 1372.49 33.18L1370.34 33.18L1370.34 34.7ZM1384.03 35.21C1383.77 34.83 1383.65 34.31 1383.65 33.65L1383.65 21.63L1380.09 21.63L1380.09 33.67Q1380.09 35.45 1380.6 36.6C1380.95 37.36 1381.44 37.95 1382.06 38.38C1382.7 38.8 1383.45 39.09 1384.29 39.27C1385.14 39.43 1386.05 39.51 1387.03 39.51C1388.02 39.51 1388.93 39.43 1389.77 39.27C1390.61 39.09 1391.35 38.8 1391.97 38.38C1392.6 37.95 1393.09 37.36 1393.44 36.6C1393.79 35.84 1393.97 34.86 1393.97 33.67L1393.97 21.63L1390.39 21.63L1390.39 33.65Q1390.39 34.64 1389.98 35.21C1389.73 35.59 1389.34 35.88 1388.83 36.05C1388.33 36.23 1387.73 36.31 1387.03 36.31C1386.31 36.31 1385.69 36.23 1385.18 36.05C1384.69 35.88 1384.3 35.59 1384.03 35.21ZM1403.66 28.36L1402.86 30.39L1402.05 28.36L1399.36 21.63L1395.66 21.63L1396.31 23.13L1401.01 34.01L1401.01 39.39L1404.56 39.39L1404.56 34.01L1409.25 23.13L1409.89 21.63L1406.34 21.63L1403.66 28.36ZM1490.89 21.63L1490.89 39.39L1494.44 39.39L1494.44 21.63L1490.89 21.63ZM1455.59 30.98L1456.01 32.48L1451.64 32.48L1452.06 30.98L1453.05 27.46L1453.83 24.67L1454.61 27.46L1455.59 30.98ZM1454.03 30.98L1453.83 30.24L1453.62 30.98L1454.03 30.98ZM1372.33 27.45Q1372.32 27.45 1372.3 27.45L1370.34 27.45L1370.34 26.32L1372.25 26.32Q1372.34 26.32 1372.39 26.34Q1372.4 26.34 1372.41 26.35Q1372.46 26.53 1372.45 26.91Q1372.45 27.27 1372.33 27.45ZM1370.34 24.82L1372.25 24.82Q1372.69 24.82 1373.05 24.99Q1373.28 25.1 1373.47 25.28C1373.79 25.57 1373.95 26.07 1373.95 26.8C1373.95 26.84 1373.95 26.87 1373.95 26.91Q1373.95 27.78 1373.54 28.34L1373.53 28.34L1373.53 28.35Q1373.52 28.37 1373.5 28.4C1373.21 28.76 1372.81 28.95 1372.3 28.95L1368.84 28.95L1368.84 24.82L1370.34 24.82Z" fill="#FFFFFF" fill-opacity="1.000000" fill-rule="evenodd"/>
	</g>
</svg>
