<svg width="194.280762" height="56.000000" viewBox="0 0 194.281 56" fill="none" xmlns="http://www.w3.org/2000/svg" xmlns:xlink="http://www.w3.org/1999/xlink">
	<desc>
			Created with Pixso.
	</desc>
	<defs>
		<clipPath id="clip6_76">
			<rect id="OBJECTS" rx="-0.461058" width="47.571972" height="55.077885" transform="translate(0.461058 0.461058)" fill="white" fill-opacity="0"/>
		</clipPath>
		<linearGradient x1="24.251591" y1="56.000004" x2="24.251591" y2="0.000000" id="paint_linear_6_73_0" gradientUnits="userSpaceOnUse">
			<stop stop-color="#7D33A9"/>
			<stop offset="0.120000" stop-color="#A832C4"/>
			<stop offset="0.250000" stop-color="#CD31DB"/>
			<stop offset="0.370000" stop-color="#E831EC"/>
			<stop offset="0.480000" stop-color="#F931F6"/>
			<stop offset="0.560000" stop-color="#FF31FA"/>
		</linearGradient>
		<linearGradient x1="24.251656" y1="44.676357" x2="24.251656" y2="11.323486" id="paint_linear_6_74_0" gradientUnits="userSpaceOnUse">
			<stop stop-color="#531DB5"/>
			<stop offset="1.000000" stop-color="#8733FF"/>
		</linearGradient>
		<linearGradient x1="24.251656" y1="44.676357" x2="24.251656" y2="11.323486" id="paint_linear_6_75_0" gradientUnits="userSpaceOnUse">
			<stop stop-color="#0099FF"/>
			<stop offset="0.100000" stop-color="#0EB1FF"/>
			<stop offset="0.230000" stop-color="#1FCDFF"/>
			<stop offset="0.380000" stop-color="#2DE3FF"/>
			<stop offset="0.550000" stop-color="#36F3FF"/>
			<stop offset="0.730000" stop-color="#3CFCFF"/>
			<stop offset="1.000000" stop-color="#3EFFFF"/>
		</linearGradient>
	</defs>
	<path id="INFLUENCE" d="M172.43 43.35C170.51 43.35 168.98 42.98 167.85 42.26C166.74 41.53 165.96 40.53 165.52 39.25Q164.84 37.3 164.84 34.74L164.84 25.43Q164.84 22.74 165.52 20.82C165.96 19.52 166.74 18.52 167.85 17.81C168.98 17.11 170.51 16.76 172.43 16.76C174.28 16.76 175.74 17.06 176.78 17.68C177.85 18.3 178.59 19.18 179.02 20.31Q179.69 22 179.69 24.24L179.69 26.42L174.57 26.42L174.57 23.99C174.57 23.39 174.54 22.84 174.48 22.32C174.41 21.79 174.23 21.36 173.93 21.04C173.66 20.7 173.16 20.53 172.46 20.53C171.76 20.53 171.24 20.7 170.92 21.04Q170.91 21.05 170.9 21.07Q170.44 21.57 170.32 22.39C170.23 22.92 170.19 23.52 170.19 24.18L170.19 35.96C170.19 36.68 170.24 37.32 170.35 37.88C170.48 38.41 170.7 38.82 171.02 39.12C171.36 39.4 171.84 39.54 172.46 39.54C173.14 39.54 173.62 39.38 173.9 39.06C174.2 38.72 174.38 38.27 174.44 37.72C174.53 37.16 174.57 36.57 174.57 35.96L174.57 33.43L179.69 33.43L179.69 35.57Q179.69 37.84 179.05 39.6C178.63 40.75 177.89 41.67 176.84 42.36Q175.28 43.35 172.43 43.35ZM61.01 43L61.01 17.08L66.26 17.08L66.26 43L61.01 43ZM70.23 43L70.23 17.08L73.91 17.08L79.67 30.58L79.67 17.08L84.02 17.08L84.02 43L80.5 43L74.74 28.66L74.74 43L70.23 43ZM87.95 43L87.95 17.08L98.89 17.08L98.89 20.66L93.23 20.66L93.23 27.67L98.03 27.67L98.03 31.35L93.23 31.35L93.23 43L87.95 43ZM101.54 43L101.54 17.08L106.82 17.08L106.82 39.41L112.9 39.41L112.9 43L101.54 43ZM122.27 43.35C120.31 43.35 118.79 43.02 117.7 42.36C116.61 41.67 115.84 40.7 115.39 39.44Q114.75 37.52 114.75 34.8L114.75 17.08L119.97 17.08L119.97 35.54C119.97 36.18 120.01 36.81 120.1 37.43C120.21 38.05 120.42 38.55 120.74 38.93C121.08 39.32 121.59 39.51 122.27 39.51C122.98 39.51 123.49 39.32 123.81 38.93C124.15 38.55 124.37 38.05 124.45 37.43C124.54 36.81 124.58 36.18 124.58 35.54L124.58 17.08L129.79 17.08L129.79 34.8C129.79 36.62 129.57 38.16 129.12 39.44C128.7 40.7 127.94 41.67 126.85 42.36Q125.22 43.35 122.27 43.35ZM133.48 43L133.48 17.08L144.77 17.08L144.77 20.72L138.76 20.72L138.76 27.6L143.4 27.6L143.4 31.28L138.76 31.28L138.76 39.41L144.84 39.41L144.84 43L133.48 43ZM147.51 43L147.51 17.08L151.19 17.08L156.95 30.58L156.95 17.08L161.3 17.08L161.3 43L157.78 43L152.02 28.66L152.02 43L147.51 43ZM182.92 43L182.92 17.08L194.21 17.08L194.21 20.72L188.2 20.72L188.2 27.6L192.84 27.6L192.84 31.28L188.2 31.28L188.2 39.41L194.28 39.41L194.28 43L182.92 43Z" fill="#2E0573" fill-opacity="1.000000" fill-rule="evenodd"/>
	<rect id="OBJECTS" rx="-0.461058" width="47.571972" height="55.077885" transform="translate(0.461058 0.461058)" fill="#FFFFFF" fill-opacity="0"/>
	<g clip-path="url(#clip6_76)">
		<path id="Vector" d="M17.17 6.89L24.25 0L31.32 6.89L24.25 19.14L17.17 6.89ZM24.25 36.84L17.17 49.09L24.25 55.99L31.32 49.09L24.25 36.84Z" fill="url(#paint_linear_6_73_0)" fill-opacity="1.000000" fill-rule="nonzero"/>
		<path id="Vector" d="M38.98 11.32L48.49 13.99L46.05 23.56L31.9 23.56L38.97 11.32L38.98 11.32ZM16.57 32.42L2.44 32.42L0 41.99L9.5 44.66L16.57 32.42Z" fill="url(#paint_linear_6_74_0)" fill-opacity="1.000000" fill-rule="nonzero"/>
		<path id="Vector" d="M2.44 23.56L0 13.99L9.5 11.32L16.57 23.56L2.44 23.56ZM31.91 32.42L38.98 44.66L48.49 41.99L46.05 32.42L31.9 32.42L31.91 32.42Z" fill="url(#paint_linear_6_75_0)" fill-opacity="1.000000" fill-rule="nonzero"/>
	</g>
</svg>
