<svg width="184.100586" height="56.000366" viewBox="0 0 184.101 56.0004" fill="none" xmlns="http://www.w3.org/2000/svg" xmlns:xlink="http://www.w3.org/1999/xlink">
	<desc>
			Created with Pixso.
	</desc>
	<defs>
		<linearGradient x1="13.258301" y1="20.155947" x2="36.110474" y2="20.155947" id="paint_linear_6_79_0" gradientUnits="userSpaceOnUse">
			<stop stop-color="#8A0BFF"/>
			<stop offset="1.000000" stop-color="#2A0056"/>
		</linearGradient>
		<linearGradient x1="9.792644" y1="13.631989" x2="29.399002" y2="25.369511" id="paint_linear_6_80_0" gradientUnits="userSpaceOnUse">
			<stop stop-color="#8A0BFF" stop-opacity="0.000000"/>
			<stop offset="1.000000" stop-color="#2A0056"/>
		</linearGradient>
		<linearGradient x1="28.069382" y1="40.311802" x2="28.069382" y2="2.969849" id="paint_linear_6_81_0" gradientUnits="userSpaceOnUse">
			<stop stop-color="#A553FF"/>
			<stop offset="1.000000" stop-color="#AE38FF"/>
		</linearGradient>
		<linearGradient x1="26.364571" y1="22.936131" x2="41.662575" y2="27.888905" id="paint_linear_6_82_0" gradientUnits="userSpaceOnUse">
			<stop stop-color="#AF53FF"/>
			<stop offset="0.160000" stop-color="#AE4DFF" stop-opacity="0.800000"/>
			<stop offset="0.390000" stop-color="#AE45FF" stop-opacity="0.521569"/>
			<stop offset="0.600000" stop-color="#AE3FFF" stop-opacity="0.290196"/>
			<stop offset="0.780000" stop-color="#AE3BFF" stop-opacity="0.129412"/>
			<stop offset="0.920000" stop-color="#AE38FF" stop-opacity="0.039216"/>
			<stop offset="1.000000" stop-color="#AE38FF" stop-opacity="0.000000"/>
		</linearGradient>
		<linearGradient x1="16.338009" y1="23.334896" x2="36.612499" y2="33.309418" id="paint_linear_6_83_0" gradientUnits="userSpaceOnUse">
			<stop stop-color="#8A0BFF"/>
			<stop offset="1.000000" stop-color="#2A0056" stop-opacity="0.000000"/>
		</linearGradient>
		<linearGradient x1="-0.000877" y1="35.844421" x2="22.851299" y2="35.844421" id="paint_linear_6_85_0" gradientUnits="userSpaceOnUse">
			<stop stop-color="#3D0056"/>
			<stop offset="1.000000" stop-color="#FF0BA2"/>
		</linearGradient>
		<linearGradient x1="11.018950" y1="30.669649" x2="24.465586" y2="49.146660" id="paint_linear_6_86_0" gradientUnits="userSpaceOnUse">
			<stop stop-color="#3D0056"/>
			<stop offset="1.000000" stop-color="#E33FC5"/>
		</linearGradient>
		<linearGradient x1="8.038231" y1="53.027870" x2="8.038231" y2="15.685913" id="paint_linear_6_87_0" gradientUnits="userSpaceOnUse">
			<stop stop-color="#DF38FF"/>
			<stop offset="1.000000" stop-color="#FF39FF"/>
		</linearGradient>
		<linearGradient x1="-4.350183" y1="26.072079" x2="23.219843" y2="38.697567" id="paint_linear_6_88_0" gradientUnits="userSpaceOnUse">
			<stop stop-color="#9E0082"/>
			<stop offset="1.000000" stop-color="#FF39FF" stop-opacity="0.000000"/>
		</linearGradient>
		<linearGradient x1="19.771446" y1="32.662857" x2="-0.503042" y2="22.690493" id="paint_linear_6_89_0" gradientUnits="userSpaceOnUse">
			<stop stop-color="#8A0BFF"/>
			<stop offset="1.000000" stop-color="#2A0056" stop-opacity="0.000000"/>
		</linearGradient>
	</defs>
	<path id="Vector" d="M19.84 0L13.25 0L26.8 26.47L20.03 40.31L28 40.31C29.19 40.31 30.28 39.63 30.8 38.56L35.58 28.81C36.3 27.34 36.28 25.61 35.53 24.16L24.69 2.96C23.76 1.14 21.89 0 19.84 0Z" fill="url(#paint_linear_6_79_0)" fill-opacity="1.000000" fill-rule="nonzero"/>
	<path id="Vector" d="M19.84 0L13.25 0L26.8 26.47L20.03 40.31L28 40.31C29.19 40.31 30.28 39.63 30.8 38.56L35.58 28.81C36.3 27.34 36.28 25.61 35.53 24.16L24.69 2.96C23.76 1.14 21.89 0 19.84 0Z" fill="url(#paint_linear_6_80_0)" fill-opacity="1.000000" fill-rule="nonzero"/>
	<path id="Vector" d="M24.69 2.96C30.09 13.52 30.52 18.88 26.8 26.47L20.03 40.31L28 40.31C29.19 40.31 30.28 39.63 30.8 38.56L35.58 28.81C36.3 27.34 36.28 25.61 35.53 24.16L24.69 2.96Z" fill="url(#paint_linear_6_81_0)" fill-opacity="1.000000" fill-rule="nonzero"/>
	<g style="mix-blend-mode:overlay">
		<path id="Vector" d="M24.69 2.96C30.09 13.52 30.52 18.88 26.8 26.47L20.03 40.31L28 40.31C29.19 40.31 30.28 39.63 30.8 38.56L35.58 28.81C36.3 27.34 36.28 25.61 35.53 24.16L24.69 2.96Z" fill="url(#paint_linear_6_82_0)" fill-opacity="1.000000" fill-rule="nonzero"/>
	</g>
	<g opacity="0.420000">
		<path id="Vector" d="M35.53 24.16L32.48 18.18C32.68 21.61 31.86 24.73 30.08 28.36L24.23 40.31L28 40.31C29.19 40.31 30.28 39.63 30.8 38.56L35.57 28.81C36.29 27.34 36.28 25.61 35.53 24.16L35.53 24.16Z" fill="url(#paint_linear_6_83_0)" fill-opacity="1.000000" fill-rule="nonzero"/>
	</g>
	<path id="Vector" d="M16.26 56L22.85 56L9.3 29.52L16.07 15.68L8.1 15.68C6.91 15.68 5.82 16.36 5.3 17.43L0.52 27.18C-0.2 28.65 -0.18 30.37 0.57 31.83L11.41 53.03C12.34 54.85 14.21 56 16.26 56Z" fill="url(#paint_linear_6_85_0)" fill-opacity="1.000000" fill-rule="nonzero"/>
	<path id="Vector" d="M16.26 56L22.85 56L9.3 29.52L16.07 15.68L8.1 15.68C6.91 15.68 5.82 16.36 5.3 17.43L0.52 27.18C-0.2 28.65 -0.18 30.37 0.57 31.83L11.41 53.03C12.34 54.85 14.21 56 16.26 56Z" fill="url(#paint_linear_6_86_0)" fill-opacity="1.000000" fill-rule="nonzero"/>
	<path id="Vector" d="M11.4 53.02C6.01 42.47 5.58 37.11 9.3 29.51L16.07 15.68L8.1 15.68C6.91 15.68 5.82 16.36 5.29 17.43L0.52 27.18C-0.2 28.65 -0.18 30.37 0.57 31.83L11.41 53.03L11.4 53.02Z" fill="url(#paint_linear_6_87_0)" fill-opacity="1.000000" fill-rule="nonzero"/>
	<path id="Vector" d="M11.4 53.02C6.01 42.47 5.58 37.11 9.3 29.51L16.07 15.68L8.1 15.68C6.91 15.68 5.82 16.36 5.29 17.43L0.52 27.18C-0.2 28.65 -0.18 30.37 0.57 31.83L11.41 53.03L11.4 53.02Z" fill="url(#paint_linear_6_88_0)" fill-opacity="1.000000" fill-rule="nonzero"/>
	<g opacity="0.320000">
		<path id="Vector" d="M0.56 31.83L3.62 37.81C3.41 34.38 4.24 31.26 6.02 27.63L11.87 15.68L8.1 15.68C6.91 15.68 5.82 16.36 5.3 17.43L0.52 27.18C-0.2 28.65 -0.18 30.37 0.57 31.83L0.56 31.83Z" fill="url(#paint_linear_6_89_0)" fill-opacity="1.000000" fill-rule="nonzero"/>
	</g>
	<path id="CODING" d="M61.75 40.38Q59.15 40.38 56.91 39.55C55.44 38.97 54.16 38.16 53.07 37.12Q52.46 36.53 51.95 35.87L51.95 35.87L51.95 35.87Q51.1 34.76 50.51 33.44Q49.62 31.32 49.62 28.8Q49.62 26.27 50.51 24.16Q51.1 22.83 51.95 21.72Q52.46 21.06 53.07 20.48Q53.57 20.01 54.11 19.61L54.11 19.61L54.11 19.61Q55.39 18.66 56.95 18.08Q59.15 17.21 61.78 17.21Q64.69 17.21 67.03 18.24Q68.38 18.8 69.49 19.69L69.49 19.69L69.49 19.69Q70.31 20.35 70.99 21.18L67.67 24.25C66.9 23.38 66.05 22.73 65.11 22.3Q64.86 22.18 64.6 22.08L64.6 22.08Q63.4 21.63 62.03 21.63Q60.47 21.63 59.15 22.14Q58.21 22.51 57.46 23.1Q57.15 23.34 56.88 23.61Q56.68 23.81 56.5 24.02Q55.81 24.84 55.38 25.88C55.04 26.76 54.87 27.73 54.87 28.8Q54.87 30.4 55.38 31.71Q55.81 32.75 56.5 33.57L56.5 33.57Q56.68 33.78 56.88 33.98C57.52 34.62 58.28 35.11 59.15 35.45Q60.47 35.96 62.03 35.96C63.14 35.96 64.17 35.75 65.11 35.32C66.05 34.88 66.9 34.2 67.67 33.31L70.99 36.38Q70.35 37.16 69.59 37.8Q68.44 38.74 67.03 39.36C65.47 40.04 63.71 40.38 61.75 40.38ZM79.98 39.52C81.49 40.09 83.14 40.38 84.91 40.38C86.66 40.38 88.27 40.09 89.74 39.52C91.23 38.94 92.52 38.14 93.61 37.12C94.72 36.07 95.58 34.84 96.2 33.44C96.82 32.01 97.13 30.46 97.13 28.8C97.13 27.11 96.82 25.57 96.2 24.19C95.58 22.78 94.72 21.55 93.61 20.51C92.52 19.46 91.23 18.65 89.74 18.08C88.27 17.5 86.64 17.21 84.87 17.21Q82.25 17.21 80.01 18.08Q78.16 18.79 76.71 19.98L76.71 19.98L76.71 19.98L76.71 19.98Q76.4 20.23 76.11 20.51C75 21.55 74.13 22.78 73.51 24.19Q72.62 26.3 72.62 28.8Q72.62 31.29 73.51 33.4C74.13 34.81 74.99 36.04 76.07 37.08Q76.37 37.36 76.68 37.61L76.68 37.61L76.68 37.61Q78.13 38.8 79.98 39.52ZM169.73 39.55C171.22 40.1 172.85 40.38 174.62 40.38C176.22 40.38 177.82 40.13 179.42 39.64C181.05 39.15 182.46 38.45 183.68 37.53L183.68 28.44L178.94 28.44L178.94 35.02C178.6 35.21 178.24 35.36 177.89 35.48C176.93 35.8 175.94 35.96 174.91 35.96C173.85 35.96 172.86 35.79 171.97 35.45C171.09 35.11 170.33 34.62 169.66 33.98C169.02 33.32 168.52 32.55 168.16 31.68C167.82 30.8 167.65 29.84 167.65 28.8C167.65 27.73 167.82 26.76 168.16 25.88C168.52 25.01 169.02 24.25 169.66 23.61C170.33 22.97 171.1 22.48 172 22.14C172.9 21.8 173.89 21.63 174.98 21.63C176.11 21.63 177.15 21.84 178.11 22.27C179.07 22.67 179.96 23.3 180.77 24.16L184.1 21.08C183.01 19.82 181.66 18.86 180.06 18.2C178.49 17.54 176.7 17.21 174.72 17.21C172.93 17.21 171.29 17.5 169.79 18.08C168.3 18.63 167 19.43 165.89 20.48C164.78 21.52 163.91 22.75 163.3 24.16C162.7 25.56 162.4 27.11 162.4 28.8C162.4 30.48 162.7 32.03 163.3 33.44C163.91 34.84 164.77 36.07 165.86 37.12C166.97 38.16 168.26 38.97 169.73 39.55ZM101.03 40L101.03 17.6L111.2 17.6C113.63 17.6 115.78 18.06 117.63 19C119.49 19.92 120.94 21.21 121.99 22.88C123.03 24.54 123.55 26.51 123.55 28.8C123.55 31.06 123.03 33.03 121.99 34.72C120.94 36.38 119.49 37.68 117.63 38.62C115.78 39.54 113.63 40 111.2 40L101.03 40ZM127.46 17.6L127.46 40L132.65 40L132.65 17.6L127.46 17.6ZM137.96 40L137.96 17.6L142.25 17.6L153.39 31.18L153.39 17.6L158.51 17.6L158.51 40L154.25 40L143.08 26.4L143.08 40L137.96 40ZM87.63 35.45C86.79 35.79 85.88 35.96 84.87 35.96C83.87 35.96 82.94 35.79 82.09 35.45C81.24 35.11 80.49 34.62 79.85 33.98C79.23 33.34 78.74 32.58 78.38 31.71C78.04 30.81 77.87 29.84 77.87 28.8C77.87 27.73 78.04 26.76 78.38 25.88C78.74 25.01 79.24 24.25 79.88 23.61C80.52 22.97 81.26 22.48 82.09 22.14C82.94 21.8 83.87 21.63 84.87 21.63C85.88 21.63 86.81 21.8 87.66 22.14Q88.53 22.49 89.24 23.04L89.24 23.04L89.24 23.05Q89.57 23.31 89.87 23.61C90.51 24.25 91 25.01 91.34 25.88C91.7 26.76 91.88 27.73 91.88 28.8C91.88 29.86 91.7 30.83 91.34 31.71C91 32.58 90.51 33.34 89.87 33.98C89.23 34.62 88.48 35.11 87.63 35.45ZM106.21 35.74L110.95 35.74Q113.19 35.74 114.82 34.91C115.93 34.33 116.78 33.52 117.38 32.48Q117.39 32.46 117.39 32.45Q118.31 30.89 118.31 28.8Q118.31 26.65 117.38 25.12C116.78 24.07 115.93 23.27 114.82 22.72Q113.19 21.85 110.95 21.85L106.21 21.85L106.21 35.74Z" fill="#3D3B3B" fill-opacity="1.000000" fill-rule="evenodd"/>
</svg>
