<svg width="130.875000" height="56.000000" viewBox="0 0 130.875 56" fill="none" xmlns="http://www.w3.org/2000/svg" xmlns:xlink="http://www.w3.org/1999/xlink">
	<desc>
			Created with Pixso.
	</desc>
	<defs>
		<clipPath id="clip6_68">
			<rect id="OBJECTS" rx="-0.478632" width="47.537693" height="55.042736" transform="translate(0.478632 0.478632)" fill="white" fill-opacity="0"/>
		</clipPath>
		<linearGradient x1="9.170582" y1="22.993473" x2="58.536655" y2="85.215698" id="paint_linear_6_66_0" gradientUnits="userSpaceOnUse">
			<stop stop-color="#7D33A9"/>
			<stop offset="0.070000" stop-color="#A832C4"/>
			<stop offset="0.150000" stop-color="#CD31DB"/>
			<stop offset="0.220000" stop-color="#E831EC"/>
			<stop offset="0.280000" stop-color="#F931F6"/>
			<stop offset="0.330000" stop-color="#FF31FA"/>
		</linearGradient>
		<linearGradient x1="48.494957" y1="21.002394" x2="0.000000" y2="21.002394" id="paint_linear_6_67_0" gradientUnits="userSpaceOnUse">
			<stop stop-color="#531DB5"/>
			<stop offset="1.000000" stop-color="#8733FF"/>
		</linearGradient>
	</defs>
	<path id="Sync" d="M74.95 30.95C75.07 31.27 75.14 31.64 75.14 32.04C75.14 32.55 75.01 33.01 74.75 33.42C74.5 33.82 74.1 34.14 73.57 34.37Q72.79 34.71 71.57 34.71Q70.57 34.71 69.73 34.51Q68.9 34.31 68.29 33.85C67.9 33.55 67.59 33.16 67.37 32.67C67.15 32.18 67.04 31.58 67.04 30.87L62.34 30.87Q62.34 32.79 63.14 34.2Q63.55 34.94 64.12 35.54Q64.63 36.08 65.26 36.51Q65.31 36.55 65.37 36.58Q66.67 37.43 68.25 37.87Q69.22 38.13 70.2 38.23L70.2 38.23L70.2 38.23Q70.88 38.31 71.57 38.31Q73.45 38.31 74.96 37.89C75.97 37.6 76.84 37.19 77.57 36.65Q78.33 36.09 78.83 35.36Q79.06 35.03 79.25 34.67Q79.82 33.5 79.82 32.01Q79.82 30.6 79.34 29.5C79.02 28.76 78.54 28.09 77.9 27.51Q76.95 26.64 75.53 25.93Q74.12 25.23 72.26 24.67Q71.15 24.32 70.31 23.96C69.75 23.72 69.27 23.47 68.89 23.2C68.5 22.93 68.21 22.64 68.01 22.32Q67.92 22.18 67.86 22.03L67.86 22.03Q67.73 21.68 67.73 21.28Q67.73 20.79 67.89 20.37Q67.99 20.13 68.14 19.9Q68.14 19.9 68.14 19.9Q68.55 19.27 69.35 18.92Q70.17 18.54 71.39 18.54Q72.65 18.54 73.48 18.98C74.04 19.27 74.46 19.67 74.73 20.18Q75.15 20.93 75.15 21.93L79.81 21.93C79.81 20.58 79.46 19.38 78.76 18.32Q78.59 18.07 78.4 17.83Q77.42 16.6 75.85 15.84Q73.98 14.93 71.46 14.93Q69.62 14.93 68.07 15.39Q66.54 15.84 65.42 16.68Q64.57 17.31 64 18.13L64 18.13L64 18.13Q63.82 18.4 63.67 18.68Q63.55 18.89 63.46 19.11Q63.04 20.1 63.04 21.26Q63.04 22.73 63.64 23.84Q63.7 23.96 63.77 24.07Q64.36 25.04 65.29 25.79Q66.35 26.62 67.73 27.25Q69.12 27.87 70.67 28.37C71.59 28.66 72.35 28.94 72.93 29.21C73.52 29.48 73.97 29.76 74.29 30.04C74.61 30.31 74.83 30.61 74.95 30.95ZM103.26 38L103.26 26C103.32 25.89 103.39 25.77 103.46 25.67C103.76 25.24 104.12 24.91 104.56 24.67C105.01 24.43 105.53 24.31 106.14 24.31C106.72 24.31 107.21 24.4 107.6 24.57C108.01 24.74 108.32 25.03 108.53 25.45C108.74 25.86 108.84 26.45 108.84 27.2L108.84 38L113.37 38L113.37 27.21C113.37 26.03 113.24 25.02 112.98 24.2C112.73 23.38 112.37 22.71 111.89 22.21Q111.58 21.89 111.22 21.63L111.22 21.63Q110.75 21.31 110.2 21.12C109.54 20.89 108.82 20.78 108.03 20.78C107.03 20.78 106.12 20.97 105.31 21.35C104.51 21.73 103.81 22.28 103.23 23Q103.18 23.05 103.14 23.11L102.98 21.09L98.76 21.09L98.76 38L103.26 38ZM125.25 34.48C124.82 34.69 124.33 34.79 123.78 34.79C123.11 34.79 122.57 34.66 122.15 34.39C121.74 34.11 121.41 33.75 121.17 33.28C120.94 32.81 120.78 32.27 120.7 31.67C120.62 31.06 120.57 30.43 120.57 29.78L120.57 29.32C120.57 28.67 120.62 28.04 120.7 27.45C120.79 26.84 120.95 26.31 121.18 25.84C121.41 25.36 121.74 24.98 122.15 24.71C122.57 24.43 123.1 24.29 123.76 24.29Q124.68 24.29 125.31 24.71C125.74 24.98 126.06 25.35 126.28 25.81C126.51 26.27 126.63 26.78 126.64 27.34L130.87 27.34C130.86 26 130.55 24.83 129.95 23.85C129.35 22.86 128.53 22.1 127.48 21.57C126.44 21.04 125.22 20.78 123.84 20.78C122.54 20.78 121.4 21 120.43 21.43C119.46 21.87 118.66 22.48 118.01 23.26Q117.04 24.42 116.56 25.98C116.24 27.01 116.07 28.13 116.07 29.32L116.07 29.78C116.07 30.96 116.24 32.08 116.56 33.12Q117 34.54 117.86 35.65Q117.93 35.75 118.01 35.84C118.66 36.61 119.46 37.21 120.43 37.65C121.41 38.09 122.56 38.31 123.87 38.31C125.17 38.31 126.35 38.05 127.4 37.53C128.45 37 129.29 36.27 129.92 35.35C130.54 34.43 130.86 33.37 130.87 32.18L126.64 32.18C126.63 32.71 126.5 33.18 126.25 33.57C126.01 33.96 125.67 34.26 125.25 34.48ZM89.05 31.71L85.87 21.09L81.04 21.09L86.99 38.05L86.48 39.35C86.34 39.79 86.16 40.15 85.93 40.42C85.7 40.7 85.4 40.91 85.03 41.04Q84.46 41.25 83.57 41.25C83.46 41.25 83.34 41.24 83.21 41.23L82.85 41.23L82.85 44.53C83.23 44.62 83.55 44.69 83.82 44.75C84.09 44.8 84.44 44.82 84.87 44.82C85.77 44.82 86.52 44.68 87.14 44.4C87.76 44.12 88.28 43.76 88.68 43.31C89.1 42.87 89.43 42.41 89.67 41.92C89.92 41.43 90.11 40.97 90.26 40.54L97.06 21.09L92.23 21.09L89.05 31.71Z" fill="#27284A" fill-opacity="1.000000" fill-rule="evenodd"/>
	<rect id="OBJECTS" rx="-0.478632" width="47.537693" height="55.042736" transform="translate(0.478632 0.478632)" fill="#FFFFFF" fill-opacity="0"/>
	<g clip-path="url(#clip6_68)">
		<path id="Vector" d="M0 14L0 42L24.24 56L48.49 42L0 14Z" fill="url(#paint_linear_6_66_0)" fill-opacity="1.000000" fill-rule="nonzero"/>
		<path id="Vector" d="M0 14L0 42L48.49 14L24.24 0L0 14Z" fill="url(#paint_linear_6_67_0)" fill-opacity="1.000000" fill-rule="nonzero"/>
	</g>
</svg>
