<svg width="22.000000" height="22.000000" viewBox="0 0 22 22" fill="none" xmlns="http://www.w3.org/2000/svg" xmlns:xlink="http://www.w3.org/1999/xlink"><desc>Created with Pixso.</desc><defs><clipPath id="clip13_835"><rect id="instagram 2" rx="-0.500000" width="21.000000" height="21.000000" transform="translate(0.500000 0.500000)" fill="white" fill-opacity="0"/></clipPath></defs><rect id="instagram 2" rx="-0.500000" width="21.000000" height="21.000000" transform="translate(0.500000 0.500000)" fill="#FFFFFF" fill-opacity="0"/><g clip-path="url(#clip13_835)"><path id="Vector" d="M21.97 6.46C21.92 5.29 21.73 4.49 21.46 3.79C21.18 3.05 20.75 2.39 20.19 1.84C19.64 1.28 18.97 0.85 18.24 0.58C17.54 0.3 16.74 0.12 15.57 0.06C14.4 0.01 14.02 0 11.04 0C8.05 0 7.67 0.01 6.5 0.06C5.33 0.11 4.53 0.3 3.83 0.57C3.09 0.85 2.43 1.28 1.88 1.84C1.32 2.39 0.89 3.06 0.61 3.79C0.34 4.49 0.15 5.29 0.1 6.46C0.05 7.64 0.03 8.01 0.03 11C0.03 13.98 0.05 14.36 0.1 15.53C0.15 16.7 0.34 17.5 0.61 18.2C0.89 18.94 1.32 19.6 1.88 20.15C2.43 20.71 3.1 21.14 3.83 21.42C4.53 21.69 5.33 21.88 6.5 21.93C7.67 21.98 8.04 21.99 11.03 21.99C14.02 21.99 14.39 21.98 15.57 21.93C16.73 21.88 17.54 21.69 18.23 21.42C19.71 20.85 20.88 19.68 21.45 18.2C21.72 17.5 21.91 16.7 21.96 15.53C22.02 14.36 22.03 13.98 22.03 11C22.03 8.01 22.03 7.64 21.97 6.46ZM19.99 15.45C19.95 16.52 19.76 17.1 19.61 17.49C19.24 18.45 18.48 19.21 17.53 19.58C17.14 19.73 16.55 19.91 15.48 19.95C14.32 20.01 13.98 20.02 11.04 20.02C8.1 20.02 7.75 20.01 6.6 19.95C5.52 19.91 4.94 19.73 4.55 19.58C4.08 19.4 3.64 19.12 3.29 18.75C2.93 18.4 2.65 17.97 2.47 17.49C2.32 17.1 2.14 16.52 2.09 15.45C2.04 14.29 2.03 13.94 2.03 11.01C2.03 8.07 2.04 7.72 2.09 6.56C2.14 5.49 2.32 4.91 2.47 4.52C2.65 4.04 2.93 3.61 3.3 3.26C3.65 2.89 4.08 2.61 4.56 2.44C4.95 2.29 5.53 2.11 6.6 2.06C7.76 2.01 8.11 1.99 11.04 1.99C13.98 1.99 14.33 2.01 15.49 2.06C16.56 2.11 17.14 2.29 17.53 2.44C18.01 2.61 18.44 2.89 18.79 3.26C19.16 3.61 19.44 4.04 19.61 4.52C19.76 4.91 19.95 5.49 19.99 6.56C20.04 7.72 20.06 8.07 20.06 11.01C20.06 13.94 20.04 14.28 19.99 15.45Z" fill="#FFFFFF" fill-opacity="1.000000" fill-rule="nonzero"/><path id="Vector" d="M11.04 5.35C7.92 5.35 5.38 7.88 5.38 11C5.38 14.12 7.92 16.65 11.04 16.65C14.16 16.65 16.69 14.12 16.69 11C16.69 7.88 14.16 5.35 11.04 5.35ZM11.04 14.66C9.01 14.66 7.37 13.02 7.37 11C7.37 8.97 9.01 7.33 11.04 7.33C13.06 7.33 14.7 8.97 14.7 11C14.7 13.02 13.06 14.66 11.04 14.66Z" fill="#FFFFFF" fill-opacity="1.000000" fill-rule="nonzero"/><path id="Vector" d="M18.23 5.12C18.23 5.85 17.64 6.44 16.91 6.44C16.18 6.44 15.59 5.85 15.59 5.12C15.59 4.39 16.18 3.8 16.91 3.8C17.64 3.8 18.23 4.39 18.23 5.12Z" fill="#FFFFFF" fill-opacity="1.000000" fill-rule="nonzero"/></g></svg>