<svg width="24.831787" height="25.000000" viewBox="0 0 24.8318 25" fill="none" xmlns="http://www.w3.org/2000/svg" xmlns:xlink="http://www.w3.org/1999/xlink"><desc>Created with Pixso.</desc><defs/><path id="icon" d="M3.4 6.81C2.73 6.81 2.07 6.61 1.51 6.24C0.95 5.86 0.51 5.33 0.25 4.71C0 4.09 -0.07 3.4 0.06 2.74C0.19 2.08 0.52 1.47 0.99 0.99C1.47 0.52 2.08 0.19 2.74 0.06C3.4 -0.07 4.09 0 4.71 0.25C5.33 0.51 5.86 0.95 6.24 1.51C6.61 2.07 6.81 2.73 6.81 3.4C6.81 4.31 6.45 5.18 5.81 5.81C5.18 6.45 4.31 6.81 3.4 6.81ZM24.77 24.51C24.81 24.41 24.83 24.31 24.83 24.21L24.82 16.93L24.82 16.86C24.82 13.68 24.82 7.99 18.69 7.99C15.9 7.99 14.59 9.01 13.71 10.33L13.71 9.02C13.71 8.81 13.63 8.62 13.48 8.47C13.34 8.32 13.14 8.24 12.93 8.24L9.2 8.24C9.1 8.24 9 8.26 8.9 8.3C8.81 8.34 8.72 8.4 8.65 8.47C8.58 8.54 8.52 8.63 8.48 8.72C8.44 8.82 8.42 8.92 8.42 9.02L8.42 24.22C8.42 24.32 8.44 24.42 8.48 24.52C8.52 24.61 8.58 24.7 8.65 24.77C8.72 24.84 8.81 24.9 8.9 24.94C9 24.97 9.1 25 9.2 25L12.93 25C13.14 24.99 13.33 24.91 13.47 24.76C13.62 24.62 13.7 24.42 13.7 24.22L13.7 16.07C13.79 14.97 14.28 12.53 16.65 12.53C19.49 12.53 19.44 15.59 19.41 16.88C19.41 16.98 19.41 17.07 19.41 17.15L19.41 24.21C19.41 24.31 19.43 24.41 19.47 24.51C19.51 24.6 19.56 24.69 19.64 24.76C19.71 24.83 19.79 24.89 19.89 24.93C19.98 24.97 20.08 24.99 20.19 24.99L24.05 24.99C24.15 24.99 24.25 24.97 24.35 24.93C24.44 24.89 24.53 24.83 24.6 24.76C24.67 24.69 24.73 24.6 24.77 24.51ZM6.05 24.15C6.05 24.26 6.02 24.37 5.98 24.47C5.94 24.58 5.88 24.67 5.8 24.75C5.72 24.83 5.63 24.89 5.53 24.93C5.42 24.97 5.31 25 5.2 25L1.61 25C1.5 25 1.39 24.97 1.28 24.93C1.18 24.89 1.09 24.83 1.01 24.75C0.93 24.67 0.87 24.58 0.83 24.47C0.78 24.37 0.76 24.26 0.76 24.15L0.76 9.09C0.76 8.86 0.85 8.65 1.01 8.49C1.17 8.33 1.38 8.24 1.61 8.24L5.2 8.24C5.43 8.24 5.64 8.33 5.8 8.49C5.96 8.65 6.05 8.86 6.05 9.09L6.05 24.15Z" fill="#FFFFFF" fill-opacity="1.000000" fill-rule="evenodd"/></svg>